<?xml version="1.0" encoding="UTF-8"?>
<svg xmlns="http://www.w3.org/2000/svg" xmlns:xlink="http://www.w3.org/1999/xlink" width="56px" height="57px" viewBox="0 0 56 57" version="1.1">
  <title>辅热</title>
  <defs>
    <path d="M27.9949783,4 C15.8525451,4 6,13.8525451 6,25.9949783 C6,38.1474549 15.8525451,48 27.9949783,48 C40.1474549,48 50,38.1474549 50,25.9949783 C50,13.8525451 40.1474549,4 27.9949783,4 Z" id="path-1"></path>
    <filter x="-23.9%" y="-17.0%" width="147.7%" height="147.7%" filterUnits="objectBoundingBox" id="filter-2">
      <feOffset dx="0" dy="3" in="SourceAlpha" result="shadowOffsetOuter1"></feOffset>
      <feGaussianBlur stdDeviation="3" in="shadowOffsetOuter1" result="shadowBlurOuter1"></feGaussianBlur>
      <feComposite in="shadowBlurOuter1" in2="SourceAlpha" operator="out" result="shadowBlurOuter1"></feComposite>
      <feColorMatrix values="0 0 0 0 0   0 0 0 0 0   0 0 0 0 0  0 0 0 0.16 0" type="matrix" in="shadowBlurOuter1"></feColorMatrix>
    </filter>
    <mask id="mask-3" maskContentUnits="userSpaceOnUse" maskUnits="objectBoundingBox" x="0" y="0" width="44" height="44" fill="white">
      <use xlink:href="#path-1"></use>
    </mask>
  </defs>
  <g id="页面-1" stroke="none" stroke-width="1" fill="none" fill-rule="evenodd">
    <g id="画板" transform="translate(-126.000000, -368.000000)">
      <g id="辅热备份-2" transform="translate(126.000000, 368.000000)">
        <g id="路径" stroke-dasharray="0,0">
          <use fill="black" fill-opacity="1" filter="url(#filter-2)" xlink:href="#path-1"></use>
          <use stroke="#FFFFFF" mask="url(#mask-3)" stroke-width="1" fill="#14726C" fill-rule="evenodd" xlink:href="#path-1"></use>
        </g>
        <path d="M34.0032778,16.2175397 L34.1876913,16.2269222 C35.9776913,16.3669222 37.3576913,17.9169222 37.3676913,19.7769222 L37.3676913,19.7769222 L37.3676913,26.3769222 C37.9876913,26.1469222 38.6676913,25.8769222 39.4276913,25.5169222 C39.6276913,25.4369222 39.8476913,25.4369222 40.0376913,25.5169222 C40.2376913,25.5969222 40.3976913,25.7569222 40.4876913,25.9569222 C40.5776913,26.1669222 40.5876913,26.3869222 40.5176913,26.5969222 C40.4476913,26.8069222 40.2976913,26.9769222 40.0976913,27.0569222 C39.2176913,27.4769222 38.3076913,27.8469222 37.3876913,28.1569222 L37.3876913,28.1569222 L37.3876913,32.9769222 C37.3376913,33.3969222 36.9976913,33.7169222 36.5976913,33.7169222 C36.1876913,33.7169222 35.8476913,33.3969222 35.7976913,32.9769222 L35.7976913,32.9769222 L35.7976913,28.5769222 C35.6276913,28.6269222 35.4476913,28.6569222 35.2676913,28.6769222 C35.0176913,28.7169222 34.7476913,28.7169222 34.4876913,28.7169222 C33.6776913,28.6969222 32.8676913,28.5969222 32.0676913,28.4069222 L32.0676913,28.4069222 L32.0676913,32.9269222 C32.0676913,33.0969222 32.0076913,33.2569222 31.9076913,33.3869222 C31.4776913,34.8969222 30.1376913,35.9269222 28.6276913,35.9269222 C27.1076913,35.9269222 25.7676913,34.8969222 25.3376913,33.3869222 C25.2376913,33.2569222 25.1776913,33.0969222 25.1776913,32.9269222 L25.1776913,32.9269222 L25.1776913,26.2569222 C24.1776913,25.8669222 23.1376913,25.6169222 22.0776913,25.5269222 C21.8876913,25.5269222 21.6776913,25.5869222 21.4676913,25.5869222 L21.4676913,25.5869222 L21.4676913,32.9269222 C21.4676913,33.3869222 21.1076913,33.7569222 20.6776913,33.7569222 C20.2376913,33.7569222 19.8776913,33.3869222 19.8776913,32.9269222 L19.8776913,32.9269222 L19.8776913,25.8669222 C18.8176913,26.1769222 17.7776913,26.5869222 16.7776913,27.0869222 C16.5876913,27.1769222 16.3676913,27.1869222 16.1676913,27.1169222 C15.9676913,27.0369222 15.8076913,26.8869222 15.7176913,26.6769222 C15.6276913,26.4869222 15.6076913,26.2569222 15.6876913,26.0469222 C15.7576913,25.8369222 15.9076913,25.6669222 16.1076913,25.5869222 C17.3176913,24.9769222 18.5776913,24.5069222 19.8776913,24.1769222 L19.8776913,24.1769222 L19.8776913,19.7769222 C19.8876913,17.9269222 21.2676913,16.3769222 23.0576913,16.2369222 C24.8376913,16.0969222 26.4276913,17.3969222 26.7076913,19.2369222 L26.7076913,19.2369222 L26.7676913,19.2369222 L26.7676913,25.0969222 L27.9376913,25.5069222 C28.7276913,25.8469222 29.5376913,26.1469222 30.3676913,26.3769222 L30.3676913,26.3769222 L30.4676913,26.3769222 L30.4676913,19.2369222 L30.5276913,19.2369222 C30.8076913,17.3869222 32.3976913,16.0869222 34.1876913,16.2269222 Z M26.7637582,26.835907 L26.7637582,32.375907 C26.7837582,33.425907 27.6137582,34.275907 28.6237582,34.265907 L28.6337582,34.265907 C29.6437582,34.265907 30.4637582,33.415907 30.4737582,32.375907 L30.4737582,28.055907 L30.1337582,27.995907 C29.1837582,27.765907 28.2637582,27.465907 27.3637582,27.075907 L26.7637582,26.835907 Z M33.9100686,17.8575439 C32.8900686,17.8575439 32.0600686,18.7175439 32.0600686,19.7775439 L32.0600686,26.7275439 C33.0500686,26.9975439 34.0700686,27.1075439 35.0800686,27.0375439 L35.0900686,27.0375439 C35.3200686,27.0075439 35.5500686,26.9575439 35.7700686,26.8875439 L35.7700686,19.7775439 C35.7700686,18.7175439 34.9400686,17.8575439 33.9100686,17.8575439 Z M22.3529478,17.9979023 C21.7629478,18.3779023 21.4229478,19.0579023 21.4629478,19.7779023 L21.4629478,23.9179023 C21.6729478,23.9079023 21.8829478,23.8779023 22.0829478,23.8779023 C23.1429478,23.9379023 24.1829478,24.1679023 25.1729478,24.5379023 L25.1729478,19.7779023 C25.2329478,19.0579023 24.8829478,18.3679023 24.2929478,17.9979023 C23.6929478,17.6279023 22.9529478,17.6279023 22.3529478,17.9979023 Z" id="辅热" fill="#FFFFFF"></path>
      </g>
    </g>
  </g>
</svg>
