<?xml version="1.0" encoding="UTF-8"?>
<svg xmlns="http://www.w3.org/2000/svg" xmlns:xlink="http://www.w3.org/1999/xlink" width="56px" height="57px" viewBox="0 0 56 57" version="1.1">
  <title>清洁</title>
  <defs>
    <path d="M28,4 C15.85,4 6,13.85 6,26 C6,38.15 15.85,48 28,48 C40.15,48 50,38.15 50,26 C50,13.85 40.15,4 28,4 Z" id="path-1"></path>
    <filter x="-23.9%" y="-17.0%" width="147.7%" height="147.7%" filterUnits="objectBoundingBox" id="filter-2">
      <feOffset dx="0" dy="3" in="SourceAlpha" result="shadowOffsetOuter1"></feOffset>
      <feMorphology radius="1" operator="erode" in="SourceAlpha" result="shadowInner"></feMorphology>
      <feOffset dx="0" dy="3" in="shadowInner" result="shadowInner"></feOffset>
      <feComposite in="shadowOffsetOuter1" in2="shadowInner" operator="out" result="shadowOffsetOuter1"></feComposite>
      <feGaussianBlur stdDeviation="3" in="shadowOffsetOuter1" result="shadowBlurOuter1"></feGaussianBlur>
      <feColorMatrix values="0 0 0 0 0   0 0 0 0 0   0 0 0 0 0  0 0 0 0.16 0" type="matrix" in="shadowBlurOuter1"></feColorMatrix>
    </filter>
    <mask id="mask-3" maskContentUnits="userSpaceOnUse" maskUnits="objectBoundingBox" x="0" y="0" width="44" height="44" fill="white">
      <use xlink:href="#path-1"></use>
    </mask>
  </defs>
  <g id="页面-1" stroke="none" stroke-width="1" fill="none" fill-rule="evenodd">
    <g id="操控页--关闭" transform="translate(-288.000000, -684.000000)">
      <g id="清洁" transform="translate(288.000000, 684.000000)">
        <path d="M37.2908203,27.4326172 L37.2908203,33.5626172 C37.2408203,33.9926172 36.8508203,34.3026172 36.4308203,34.2526172 C36.1008203,34.2526172 35.5908203,33.8926172 35.5908203,33.5426172 L35.5908203,33.5426172 L35.5908203,27.4326172 L37.2908203,27.4326172 Z M21.0554004,27.4326172 L21.0554004,33.5626172 C21.0254004,33.9226172 20.7454004,34.2226172 20.3854004,34.2526172 C19.9654004,34.2926172 19.5854004,33.9826172 19.5354004,33.5626172 L19.5354004,33.5626172 L19.5354004,27.4326172 L21.0554004,27.4326172 Z M24.2674976,27.4326172 L24.2674976,33.5626172 C24.2174976,33.9826172 23.8374976,34.2926172 23.4174976,34.2526172 C23.0574976,34.2226172 22.7674976,33.9226172 22.7474976,33.5426172 L22.7474976,33.5426172 L22.7474976,27.4326172 L24.2674976,27.4326172 Z M27.6442236,27.4326172 L27.6442236,33.5626172 C27.5942236,33.9826172 27.2142236,34.2926172 26.8042236,34.2526172 C26.3842236,34.2926172 26.0042236,33.9826172 25.9542236,33.5426172 L25.9542236,33.5426172 L25.9542236,27.4326172 L27.6442236,27.4326172 Z M30.6863818,27.4326172 L30.6863818,33.5626172 C30.6563818,33.9226172 30.3763818,34.2226172 30.0163818,34.2526172 C29.5963818,34.2926172 29.2163818,33.9826172 29.1663818,33.5426172 L29.1663818,33.5426172 L29.1663818,27.4326172 L30.6863818,27.4326172 Z M34.0687231,27.4326172 L34.0687231,33.5626172 C34.0187231,33.9826172 33.6387231,34.2926172 33.2287231,34.2526172 C32.7987231,34.2926172 32.4287231,33.9826172 32.3787231,33.5426172 L32.3787231,33.5426172 L32.3787231,27.4326172 L34.0687231,27.4326172 Z M29.6749751,16.0583496 L29.6749751,21.4783496 L34.7649751,21.4783496 C36.2049751,21.5483496 37.3349751,22.7983496 37.2949751,24.2783496 L37.2949751,24.2783496 L37.2949751,26.0283496 L19.5349751,26.0283496 L19.5349751,24.2783496 C19.5249751,23.5383496 19.8049751,22.8283496 20.3149751,22.2983496 C20.8249751,21.7683496 21.5149751,21.4783496 22.2449751,21.4783496 L22.2449751,21.4783496 L27.1449751,21.4783496 L27.1449751,16.0583496 L29.6749751,16.0583496 Z" fill="#FFFFFF"></path>
        <g id="路径" stroke-dasharray="0,0">
          <use fill="black" fill-opacity="1" filter="url(#filter-2)" xlink:href="#path-1"></use>
          <use stroke="#FFFFFF" mask="url(#mask-3)" stroke-width="1" xlink:href="#path-1"></use>
        </g>
      </g>
    </g>
  </g>
</svg>
