<?xml version="1.0" encoding="UTF-8"?>
<svg xmlns="http://www.w3.org/2000/svg" xmlns:xlink="http://www.w3.org/1999/xlink" width="56px" height="57px" viewBox="0 0 56 57" version="1.1">
  <title>左右摆风</title>
  <defs>
    <path d="M28,4 C15.85,4 6,13.85 6,26 C6,38.15 15.85,48 28,48 C40.15,48 50,38.15 50,26 C50,13.85 40.15,4 28,4 Z" id="path-1"></path>
    <filter x="-23.9%" y="-17.0%" width="147.7%" height="147.7%" filterUnits="objectBoundingBox" id="filter-2">
      <feOffset dx="0" dy="3" in="SourceAlpha" result="shadowOffsetOuter1"></feOffset>
      <feGaussianBlur stdDeviation="3" in="shadowOffsetOuter1" result="shadowBlurOuter1"></feGaussianBlur>
      <feComposite in="shadowBlurOuter1" in2="SourceAlpha" operator="out" result="shadowBlurOuter1"></feComposite>
      <feColorMatrix values="0 0 0 0 0   0 0 0 0 0   0 0 0 0 0  0 0 0 0.16 0" type="matrix" in="shadowBlurOuter1"></feColorMatrix>
    </filter>
    <mask id="mask-3" maskContentUnits="userSpaceOnUse" maskUnits="objectBoundingBox" x="0" y="0" width="44" height="44" fill="white">
      <use xlink:href="#path-1"></use>
    </mask>
  </defs>
  <g id="页面-1" stroke="none" stroke-width="1" fill="none" fill-rule="evenodd">
    <g id="操控页---制热---低风" transform="translate(-31.000000, -585.000000)">
      <g id="左右摆风" transform="translate(31.000000, 585.000000)">
        <g id="路径" stroke-dasharray="0,0">
          <use fill="black" fill-opacity="1" filter="url(#filter-2)" xlink:href="#path-1"></use>
          <use stroke="#FFFFFF" mask="url(#mask-3)" stroke-width="1" fill="#14726C" fill-rule="evenodd" xlink:href="#path-1"></use>
        </g>
        <path d="M36.6118488,28.6407776 L35.4718488,33.3507776 C35.3618488,33.4607776 35.2618488,33.5607776 35.1618488,33.5607776 C35.0518488,33.6807776 34.9518488,33.5607776 34.8418488,33.4607776 L34.8418488,33.4607776 L34.0118488,32.5807776 C31.1618488,35.4707776 26.8518488,36.0507776 23.4018488,34.0007776 C22.7718488,33.5907776 22.1818488,33.1107776 21.6418488,32.5807776 L21.6418488,32.5807776 L20.7118488,33.4607776 C20.6018488,33.5607776 20.4918488,33.6807776 20.3918488,33.5607776 C20.2818488,33.5607776 20.1918488,33.4607776 20.1918488,33.3507776 L20.1918488,33.3507776 L18.9418488,28.6407776 L23.4018488,29.9407776 C23.4678488,29.9407776 23.5302488,29.9839776 23.5912088,30.0401376 L23.7118488,30.1607776 C23.7318488,30.2907776 23.6918488,30.4107776 23.6118488,30.5007776 L23.6118488,30.5007776 L22.7818488,31.3707776 C24.0918488,32.7907776 25.8918488,33.5807776 27.7618488,33.5507776 C29.6718488,33.5807776 31.5018488,32.7907776 32.8418488,31.3707776 L32.8418488,31.3707776 L32.0218488,30.4907776 C31.9418488,30.4107776 31.9018488,30.2807776 31.9118488,30.1607776 L31.9118488,30.1607776 L31.9418488,30.1707776 C31.9518488,30.0607776 32.0318488,29.9707776 32.1418488,29.9607776 L32.1418488,29.9607776 L36.6118488,28.6407776 Z M28.6152756,17.0933228 L28.6152756,25.1933228 L29.8952756,25.1933228 C29.9952756,25.1933228 30.1052756,25.2933228 30.2152756,25.4133228 L30.2152756,25.4133228 L30.2152756,25.7333228 L27.7652756,30.0033228 L25.4152756,25.7333228 L25.4152756,25.4133228 C25.5252756,25.2933228 25.6252756,25.1933228 25.7352756,25.1933228 L25.7352756,25.1933228 L27.0152756,25.1933228 L27.0152756,17.0933228 L28.6152756,17.0933228 Z M25.4418488,17.0933228 C25.4818488,18.8733228 25.1218488,20.6433228 24.3918488,22.2533228 C23.9918488,23.2433228 23.4418488,24.1633228 22.7518488,24.9733228 L22.7518488,24.9733228 L23.7318488,25.9533228 C23.8418488,25.9533228 23.8418488,26.1733228 23.8418488,26.2833228 C23.7318488,26.3933228 23.7318488,26.5033228 23.5218488,26.5033228 L23.5218488,26.5033228 L18.9418488,27.7033228 L20.2218488,23.0033228 C20.2318488,22.8833228 20.3218488,22.7933228 20.4318488,22.7833228 C20.5418488,22.7833228 20.7518488,22.7833228 20.7518488,22.8933228 L20.7518488,22.8933228 L21.6018488,23.7633228 C23.0818488,21.8733228 23.8718488,19.5133228 23.8418488,17.0933228 L23.8418488,17.0933228 Z M31.7830536,17.0933228 C31.7830536,19.6133228 32.5330536,22.1233228 33.9130536,23.7633228 L33.9130536,23.7633228 L34.7730536,22.8933228 C34.8630536,22.8033228 34.9730536,22.7733228 35.0930536,22.7833228 C35.2130536,22.7933228 35.3030536,22.8833228 35.3030536,23.0033228 L35.3030536,23.0033228 L36.5830536,27.7033228 L32.0030536,26.5033228 C31.8830536,26.4933228 31.7930536,26.4033228 31.7830536,26.2833228 C31.7430536,26.2233228 31.7330536,26.1533228 31.7630536,26.0933228 C31.7830536,26.0233228 31.8330536,25.9733228 31.8930536,25.9533228 L31.8930536,25.9533228 L32.7430536,24.9733228 L32.7730536,24.9733228 C32.0930536,24.1533228 31.5530536,23.2333228 31.1730536,22.2333228 C30.4730536,20.6133228 30.1030536,18.8633228 30.0830536,17.0933228 L30.0830536,17.0933228 Z" fill="#FFFFFF"></path>
      </g>
    </g>
  </g>
</svg>
