<?xml version="1.0" encoding="UTF-8"?>
<svg xmlns="http://www.w3.org/2000/svg" xmlns:xlink="http://www.w3.org/1999/xlink" width="45px" height="45px" viewBox="0 0 45 45" version="1.1">
  <title>送风模式</title>
  <g id="页面-1" stroke="none" stroke-width="1" fill="none" fill-rule="evenodd">
    <g id="操控页---送风---长虹三档风速" transform="translate(-36.000000, -447.000000)" fill="#FFFFFF">
      <g id="送风模式-" transform="translate(36.000000, 447.000000)">
        <path d="M21.9096997,4 C32.4470915,4 40.9084013,12.2417337 41.0810811,22.4987245 C41.0810811,32.7557153 32.7924511,40.997449 22.2550593,40.997449 C11.7176674,41.1663692 3.08367787,32.9246355 3.08367787,22.6676447 C2.91099808,12.4106539 11.3723079,4 21.9096997,4 Z M33.8285298,11.0632208 C27.2627732,4.67175237 16.7293059,4.84067255 10.1635493,11.0632208 C3.60171725,17.285769 3.60171725,27.71168 10.1635493,34.1031484 C16.7293059,40.4906885 27.2627732,40.4906885 33.8285298,34.1031484 C36.9367661,31.0743702 38.663564,26.8710075 38.663564,22.6676447 C38.663564,18.2953618 36.9367661,14.091999 33.8285298,11.0632208 Z M22.6000264,13.4163183 C25.8809424,10.053628 30.029182,10.5603886 31.7559799,12.2417337 C33.6554576,14.091999 33.6554576,15.1015917 33.4827778,15.2665835 C31.2379405,17.1168488 28.9931032,18.9671141 26.5716616,20.6484592 C26.9170212,20.8173794 26.9170212,21.3202116 27.089701,21.4891318 C28.6477436,21.658052 30.3745416,22.1608841 31.5833001,23.1704769 C34.6915363,26.5331671 34.6915363,30.0687059 32.6193788,31.9150428 C30.5472213,33.7653081 29.6798978,33.7653081 29.5111426,33.5963879 C27.6116649,31.4122106 25.8809424,29.2241049 24.1541445,26.8710075 C23.6361051,27.2088478 23.4634254,27.2088478 22.945386,27.377768 C22.7727062,28.8901929 22.2546668,30.571538 21.2185881,31.7461226 C18.1103518,34.7749008 13.793357,34.7749008 12.0626346,32.7557153 C10.3358367,30.7365298 10.3358367,29.8997857 10.5085165,29.7308655 C12.5845985,27.8806002 14.8294358,26.0303349 17.2469529,24.5139816 C17.2469529,24.1800696 17.0742731,24.0111494 17.0742731,23.5083173 C15.5201549,23.3393971 13.793357,22.8365649 12.5845985,21.8269721 C9.81779729,19.6388665 9.29975791,15.7733441 11.1992356,12.9134861 C13.2713931,11.232141 14.1387166,11.232141 14.3074719,11.4010612 C16.5562337,13.4163183 18.2830316,15.6044239 20.0098295,17.9575214 C20.1825093,17.9575214 20.7005487,17.7925296 20.8732285,17.7925296 C21.0459083,16.2761763 21.5639476,14.5948312 22.6000264,13.4163183 Z M21.9093072,21.1552198 C21.0459083,21.1552198 20.3551891,21.8269721 20.3551891,22.6676447 C20.3551891,23.5083173 21.0459083,24.3489898 21.9093072,24.3489898 C22.7727062,24.1800696 23.4634254,23.5083173 23.6361051,22.6676447 C23.6361051,21.8269721 22.7727062,21.1552198 21.9093072,21.1552198 Z" id="送风模式"></path>
      </g>
    </g>
  </g>
</svg>
