<?xml version="1.0" encoding="UTF-8"?>
<svg xmlns="http://www.w3.org/2000/svg" xmlns:xlink="http://www.w3.org/1999/xlink" width="45px" height="45px" viewBox="0 0 45 45" version="1.1">
  <title>制热</title>
  <g id="页面-1" stroke="none" stroke-width="1" fill="none" fill-rule="evenodd">
    <g id="操控页---制热---低风" transform="translate(-36.000000, -444.000000)">
      <g id="制热" transform="translate(36.000000, 444.000000)">
        <rect fill="#D8D8D8" opacity="0" x="0" y="0" width="45" height="45"></rect>
        <path d="M22.5579272,35.9329711 L22.7177489,35.9356049 C23.7477489,35.9056049 24.6277489,36.6656049 24.7377489,37.6956049 L24.7377489,37.6956049 L24.7377489,42.2156049 C24.6277489,43.2556049 23.7177489,44.0256049 22.6777489,43.9756049 C22.1977489,43.9956049 21.7377489,43.8156049 21.3977489,43.4756049 C21.0477489,43.1456049 20.8577489,42.6856049 20.8677489,42.2156049 L20.8677489,42.2156049 L20.8677489,37.6956049 C20.8577489,37.2056049 21.0577489,36.7456049 21.4077489,36.4156049 C21.7577489,36.0756049 22.2377489,35.9056049 22.7177489,35.9356049 Z M10.3042876,31.9133249 C11.1142876,31.1633249 12.3642876,31.1633249 13.1742876,31.9133249 C13.5442876,32.2833249 13.7542876,32.7833249 13.7542876,33.3033249 C13.7542876,33.8233249 13.5442876,34.3133249 13.1742876,34.6833249 L13.1742876,34.6833249 L10.0842876,37.6933249 C9.68428757,38.1433249 9.12428757,38.4133249 8.53428757,38.4433249 C8.03428757,38.3433249 7.57428757,38.0733249 7.24428757,37.6933249 C6.87428757,37.3333249 6.66428757,36.8333249 6.66428757,36.3133249 C6.66428757,35.7933249 6.87428757,35.3033249 7.24428757,34.9333249 L7.24428757,34.9333249 Z M32.255457,31.9179657 C33.055457,31.1879657 34.285457,31.1879657 35.095457,31.9179657 L35.095457,31.9179657 L38.195457,34.9379657 C38.555457,35.2979657 38.765457,35.7979657 38.765457,36.3179657 C38.765457,36.8279657 38.555457,37.3279657 38.195457,37.6879657 C37.935457,38.1679657 37.435457,38.4579657 36.905457,38.4379657 C36.305457,38.4079657 35.745457,38.1379657 35.345457,37.6879657 L35.345457,37.6879657 L32.255457,34.6879657 C31.885457,34.3179657 31.675457,33.8179657 31.675457,33.2979657 C31.675457,32.7779657 31.885457,32.2779657 32.255457,31.9179657 Z M22.3881674,12.0868128 L22.7117479,12.0927095 C28.6917479,11.9427095 33.6617479,16.6627095 33.8117479,22.6327095 C33.7917479,25.5427095 32.6017479,28.3227095 30.5217479,30.3527095 C28.4317479,32.3827095 25.6217479,33.4827095 22.7117479,33.4227095 C18.8217479,33.5527095 15.1717479,31.5427095 13.1917479,28.1927095 C11.2017479,24.8427095 11.2017479,20.6727095 13.1917479,17.3227095 C15.0617479,14.1588206 18.4213467,12.1901787 22.065882,12.0907205 L22.3881674,12.0868128 Z M22.7153447,15.8574524 C18.9753447,15.8574524 15.9353447,18.8874524 15.9353447,22.6374524 C15.9353447,26.3774524 18.9753447,29.4174524 22.7153447,29.4174524 C26.4653447,29.4174524 29.4953447,26.3774524 29.4953447,22.6374524 C29.4953447,18.8874524 26.4653447,15.8574524 22.7153447,15.8574524 Z M42.9825114,20.8723419 C43.4042398,20.8936313 43.8022645,21.0694338 44.1133756,21.371656 C44.4533756,21.701656 44.6433756,22.161656 44.6333756,22.631656 C44.6633756,23.681656 43.8733756,24.561656 42.8233756,24.641656 L42.8233756,24.641656 L38.1933756,24.641656 C37.1533756,24.561656 36.3533756,23.681656 36.3833756,22.631656 C36.3733756,22.161656 36.5633756,21.701656 36.9133756,21.371656 C37.2533756,21.031656 37.7133756,20.851656 38.1933756,20.871656 Z M7.19887009,20.8678729 C8.25887009,20.7978729 9.19887009,21.5778729 9.30887009,22.6378729 C9.21887009,23.7278729 8.33887009,24.5778729 7.23887009,24.6378729 L7.23887009,24.6378729 L2.90887009,24.6378729 C1.79887009,24.6078729 0.888870087,23.7478729 0.798870087,22.6378729 C0.918870087,21.5778729 1.84887009,20.7978729 2.90887009,20.8678729 L2.90887009,20.8678729 Z M7.24328049,7.57021027 C8.04328049,6.84021027 9.27328049,6.84021027 10.0832805,7.57021027 L10.0832805,7.57021027 L13.1432805,10.5902103 C13.5132805,10.9502103 13.7232805,11.4502103 13.7232805,11.9702103 C13.7232805,12.4802103 13.5132805,12.9802103 13.1432805,13.3402103 C12.7932805,13.6602103 12.3332805,13.8402103 11.8532805,13.8502103 C11.3132805,13.8002103 10.7832805,13.6302103 10.3032805,13.3402103 L10.3032805,13.3402103 L7.24328049,10.3402103 C6.87328049,9.97021027 6.66328049,9.47021027 6.66328049,8.95021027 C6.66328049,8.43021027 6.87328049,7.93021027 7.24328049,7.57021027 Z M35.3464641,7.57021027 C36.1564641,6.84021027 37.3864641,6.84021027 38.1864641,7.57021027 C38.5564641,7.93021027 38.7664641,8.43021027 38.7664641,8.95021027 C38.7664641,9.47021027 38.5564641,9.97021027 38.1864641,10.3402103 L38.1864641,10.3402103 L35.0964641,13.3402103 C34.7364641,13.6602103 34.2864641,13.8402103 33.8064641,13.8502103 C33.2564641,13.8002103 32.7264641,13.6302103 32.2564641,13.3402103 C31.8864641,12.9802103 31.6764641,12.4802103 31.6764641,11.9702103 C31.6764641,11.4502103 31.8864641,10.9502103 32.2564641,10.5902103 L32.2564641,10.5902103 Z M22.7154082,1.29754639 C23.8254082,1.35754639 24.7054082,2.23754639 24.7754082,3.34754639 L24.7754082,3.34754639 L24.7754082,7.56754639 C24.6854082,8.65754639 23.8054082,9.51754639 22.7154082,9.58754639 C21.6354082,9.52754639 20.8154082,8.60754639 20.8654082,7.52754639 L20.8654082,7.52754639 L20.8654082,3.30754639 C20.8354082,2.24754639 21.6554082,1.35754639 22.7154082,1.29754639 Z" fill="#FFFFFF"></path>
      </g>
    </g>
  </g>
</svg>
