<?xml version="1.0" encoding="UTF-8"?>
<svg xmlns="http://www.w3.org/2000/svg" xmlns:xlink="http://www.w3.org/1999/xlink" width="45px" height="45px" viewBox="0 0 45 45" version="1.1">
  <title>自动</title>
  <g id="页面-1" stroke="none" stroke-width="1" fill="none" fill-rule="evenodd">
    <g id="操控页---自动" transform="translate(-36.000000, -447.000000)">
      <g id="自动" transform="translate(36.000000, 447.000000)">
        <rect fill="#D8D8D8" opacity="0" x="0" y="0" width="45" height="45"></rect>
        <path d="M38.2703256,22.4580125 C39.1303256,22.6380125 39.7303256,23.4280125 39.6903256,24.3280125 C39.2203256,28.6680125 37.2703256,32.7080125 34.1803256,35.7480125 C30.9403256,38.6780125 26.7403256,40.3080987 22.3903256,40.3080987 C19.3103256,40.3180125 16.2803256,39.4580125 13.6403256,37.8280125 C11.4003256,36.5980125 9.51032561,34.8080125 8.16032561,32.6280125 L8.16032561,32.6280125 L6.32032561,33.8780125 L5.72032561,33.8780125 C5.55032561,33.7080125 5.48032561,33.4780125 5.51032561,33.2580125 L5.51032561,33.2580125 L5.51032561,24.7380125 L12.6803256,29.0980125 C12.8803256,29.0980125 12.8803256,29.3080125 12.8803256,29.5180125 C12.9003256,29.7380125 12.8303256,29.9680125 12.6803256,30.1380125 L12.6803256,30.1380125 L10.8003256,31.1780125 C13.5103256,34.9180125 17.8103256,37.1480125 22.3903256,37.1880125 C29.8103256,37.1380125 35.9803256,31.3880125 36.6403256,23.9180125 C36.7103256,23.0680125 37.4303256,22.4280125 38.2703256,22.4580125 Z M23.6934378,13.572052 C23.9034378,13.582052 24.1234378,13.612052 24.3334378,13.662052 C24.4534378,13.682052 24.5734378,13.752052 24.6634378,13.852052 C24.7101045,13.9253853 24.7523267,14.0031631 24.7841786,14.0853853 L24.8234378,14.212052 L29.5534378,27.892052 C29.6434378,28.112052 29.7034378,28.332052 29.7434378,28.562052 C29.7734378,28.702052 29.7334378,28.842052 29.6434378,28.942052 C29.5384378,29.017052 29.4278128,29.063927 29.3073441,29.0868958 L29.1834378,29.102052 L27.3434378,29.102052 C27.1734378,29.092052 26.9934378,29.072052 26.8334378,29.032052 C26.7334378,29.012052 26.6434378,28.952052 26.5734378,28.882052 C26.5401045,28.8287187 26.5112156,28.7753853 26.4897341,28.719089 L26.4634378,28.632052 L25.4334378,25.532052 L19.7134378,25.532052 L18.7434378,28.542052 C18.7134378,28.642052 18.6734378,28.742052 18.6134378,28.822052 C18.5534378,28.912052 18.4734378,28.972052 18.3734378,29.002052 C18.2667711,29.042052 18.1601045,29.0642742 18.0504749,29.0776076 L17.8834378,29.092052 L17.0434378,29.092052 C16.7634378,29.102052 16.4834378,29.102052 16.2034378,29.092052 C16.0434378,29.082052 15.8934378,29.022052 15.7834378,28.922052 C15.6934378,28.812052 15.6634378,28.662052 15.6934378,28.532052 C15.7201045,28.3787187 15.75566,28.2298298 15.8001045,28.0824224 L15.8734378,27.862052 L20.5734378,14.172052 C20.6134378,14.062052 20.6634378,13.952052 20.7334378,13.852052 C20.8134378,13.762052 20.9234378,13.692052 21.0434378,13.662052 C21.1634378,13.6287187 21.2923267,13.6042742 21.4212156,13.5887187 L21.6134378,13.572052 L23.6934378,13.572052 Z M22.5591682,16.5770264 L20.4091682,23.1270264 L24.7391682,23.1270264 L22.5591682,16.5770264 Z M22.3994083,5.03375503 C25.4994083,5.01375503 28.5494083,5.87375503 31.1894083,7.52375503 C33.3694083,8.80375503 35.2394083,10.573755 36.6394083,12.693755 L36.6394083,12.693755 L38.4694083,11.693755 C38.5394083,11.593755 38.6494083,11.533755 38.7794083,11.533755 C38.8994083,11.533755 39.0094083,11.593755 39.0794083,11.693755 C39.2994083,11.703755 39.4694083,11.883755 39.4894083,12.103755 L39.4894083,12.103755 L39.4894083,20.623755 L32.1694083,16.463755 C32.1694083,16.263755 31.9594083,16.053755 31.9594083,15.843755 C31.9794083,15.693755 32.0494083,15.543755 32.1694083,15.433755 L32.1694083,15.433755 L33.9894083,14.393755 C31.4094083,10.483755 27.0494083,8.13375503 22.3994083,8.15375503 C15.0094083,8.21375503 8.90940825,14.003755 8.35940825,21.453755 C8.21940825,22.263755 7.53940825,22.873755 6.72940825,22.913755 L6.72940825,22.913755 L6.52940825,22.913755 C5.67940825,22.823755 5.04940825,22.073755 5.09940825,21.203755 C5.50940825,16.813755 7.54940825,12.743755 10.7994083,9.81375503 C13.8894083,6.72375503 18.0594083,5.01375503 22.3994083,5.03375503 Z" fill="#FFFFFF"></path>
      </g>
    </g>
  </g>
</svg>
