<?xml version="1.0" encoding="UTF-8"?>
<svg xmlns="http://www.w3.org/2000/svg" xmlns:xlink="http://www.w3.org/1999/xlink" width="45px" height="45px" viewBox="0 0 45 45" version="1.1">
  <title>制冷</title>
  <g id="页面-1" stroke="none" stroke-width="1" fill="none" fill-rule="evenodd">
    <g id="操控页---制冷---自动风速" transform="translate(-36.000000, -446.000000)">
      <g id="制冷" transform="translate(36.000000, 446.000000)">
        <path d="M38.6055808,21.1777043 L40.8555808,15.9577043 L38.8555808,14.7177043 L34.3555808,20.9277043 L27.3455808,20.6777043 C27.0955808,20.1777043 26.8455808,19.6877043 26.3455808,19.1877043 L29.8455808,13.2277043 L37.6055808,12.4777043 L37.6055808,10.2477043 L31.5955808,9.49770433 L34.3555808,4.77770433 L32.3455808,3.53770433 L29.3455808,8.25770433 L26.0955808,3.53770433 L24.0955808,4.77770433 L27.3455808,11.4877043 L23.5855808,17.4477043 L22.5855808,17.4477043 L21.8355808,17.4477043 L18.0855808,11.7377043 L21.5855808,4.52770433 L19.5855808,3.28770433 L15.8355808,8.25770433 L13.0755808,3.53770433 L11.0755808,4.77770433 L13.5755808,9.49770433 L7.82558082,9.99770433 L7.82558082,12.4777043 L15.5855808,12.9777043 L18.8355808,19.1877043 C18.3355808,19.6877043 18.0855808,20.1777043 17.8355808,20.6777043 L11.0755808,20.9277043 L6.57558082,14.4677043 L4.31558082,15.7077043 L6.82558082,21.1777043 L1.31558082,21.1777043 L1.31558082,23.6577043 L6.82558082,23.6577043 L4.31558082,28.8777043 L6.57558082,30.1177043 L10.8255808,23.9077043 L17.8355808,24.1577043 C18.0855808,24.6577043 18.3355808,25.1477043 18.8355808,25.6477043 L15.5855808,31.6077043 L7.57558082,32.3577043 L7.57558082,34.5877043 L13.5755808,35.3377043 L11.0755808,40.0577043 L13.0755808,41.2977043 L15.8355808,36.8277043 L19.0855808,41.2977043 L21.3355808,40.0577043 L18.0855808,33.3477043 L21.8355808,27.3877043 L22.5855808,27.3877043 L23.5855808,27.3877043 L27.0955808,33.0977043 L23.5855808,40.3077043 L25.8455808,41.5477043 L29.3455808,36.5777043 L32.3455808,41.2977043 L34.3555808,40.3077043 L31.5955808,35.3377043 L37.3555808,34.8377043 L37.3555808,32.6077043 L29.8455808,31.8577043 L26.3455808,25.6477043 C26.8455808,25.1477043 27.0955808,24.6577043 27.3455808,24.1577043 L34.3555808,23.9077043 L38.8555808,30.3677043 L40.8555808,29.3777043 L38.3555808,23.9077043 L43.8655808,23.6577043 L43.8655808,21.4277043 L38.6055808,21.1777043 Z" fill="#FFFFFF"></path>
        <rect opacity="0.693154978" x="0" y="0" width="45" height="45"></rect>
      </g>
    </g>
  </g>
</svg>
