<?xml version="1.0" encoding="UTF-8"?>
<svg xmlns="http://www.w3.org/2000/svg" xmlns:xlink="http://www.w3.org/1999/xlink" width="45px" height="45px" viewBox="0 0 45 45" version="1.1">
  <title>除湿</title>
  <g id="页面-1" stroke="none" stroke-width="1" fill="none" fill-rule="evenodd">
    <g id="操控页---除湿--长虹-风速" transform="translate(-36.000000, -446.000000)">
      <g id="除湿" transform="translate(36.000000, 446.000000)">
        <rect fill="#D8D8D8" opacity="0" x="0" y="0" width="45" height="45"></rect>
        <path d="M31.0813342,19.561439 C31.3413342,19.391439 31.6513342,19.331439 31.9513342,19.401439 C32.2513342,19.471439 32.5113342,19.661439 32.6713342,19.931439 L32.6713342,19.931439 L32.8113342,20.151439 C33.8913342,21.881439 36.7513342,26.481439 36.0713342,30.781439 C35.3013342,35.751439 30.9613342,39.591439 25.5313342,40.211439 C25.0413342,40.261439 24.5913342,40.291439 24.0913342,40.291439 L24.0913342,40.291439 L24.0713342,40.291439 C20.8513342,40.291439 17.7713342,38.931439 15.5513342,36.511439 C15.1013342,36.041439 15.1013342,35.281439 15.5513342,34.811439 C15.7713342,34.581439 16.0613342,34.451439 16.3713342,34.451439 C16.6713342,34.451439 16.9713342,34.581439 17.1813342,34.811439 C19.2613342,37.091439 22.2613342,38.201439 25.2713342,37.811439 C30.1713342,37.281439 33.2713342,33.681439 33.7913342,30.391439 C34.3113342,27.101439 31.8313342,22.981439 30.8813342,21.461439 L30.8813342,21.461439 L30.7313342,21.231439 C30.3913342,20.671439 30.5413342,19.931439 31.0813342,19.561439 Z M35.935641,10.3729311 C36.405641,10.3729311 36.835641,10.6629311 37.015641,11.1129311 C37.195641,11.5629311 37.085641,12.0829311 36.755641,12.4229311 L36.755641,12.4229311 L10.655641,38.1529311 C10.445641,38.3629311 10.165641,38.4829311 9.87564102,38.4929311 C9.55564102,38.4929311 9.24564102,38.3529311 9.03564102,38.1029311 C8.83564102,37.8829311 8.71564102,37.5929311 8.71564102,37.2829311 C8.71564102,36.9529311 8.84564102,36.6329311 9.07564102,36.4029311 L9.07564102,36.4029311 L35.125641,10.7229311 C35.335641,10.5029311 35.635641,10.3729311 35.935641,10.3729311 Z M23.0428872,5.30155089 C23.9928872,5.30155089 25.0728872,5.96155089 29.2328872,13.1815509 C29.3928872,13.4515509 29.4428872,13.7815509 29.3728872,14.0915509 C29.2928872,14.4015509 29.1028872,14.6715509 28.8428872,14.8415509 C28.5728872,15.0015509 28.2628872,15.0515509 27.9628872,14.9715509 C27.6628872,14.8915509 27.4128872,14.7015509 27.2528872,14.4215509 C26.0828872,12.2715509 24.7628872,10.2015509 23.3028872,8.24155089 C21.4828872,12.4215509 15.1928872,27.6515509 14.7728872,28.9315509 C14.6828872,29.4915509 14.2128872,29.9115509 13.6628872,29.9115509 L13.6628872,29.9115509 L13.6628872,29.8715509 C13.3428872,29.8815509 13.0428872,29.7615509 12.8128872,29.5315509 C12.6028872,29.3015509 12.4928872,28.9915509 12.5028872,28.6715509 C12.5028872,28.2209762 14.4561175,23.4031138 16.5801109,18.3164722 L16.8997678,17.5519724 C19.303458,11.8107899 21.8104734,5.98879227 21.8828872,5.92155089 L21.9760011,5.79757284 C22.2409119,5.48327928 22.6339984,5.30155089 23.0428872,5.30155089 Z" fill="#FFFFFF"></path>
      </g>
    </g>
  </g>
</svg>
