<?xml version="1.0" encoding="UTF-8"?>
<svg xmlns="http://www.w3.org/2000/svg" xmlns:xlink="http://www.w3.org/1999/xlink" width="45px" height="45px" viewBox="0 0 45 45" version="1.1">
  <title>编组</title>
  <defs>
    <path d="M22.2927307,0.861846924 C10.2027307,0.861846924 0.392730713,10.6718469 0.392730713,22.7618469 C0.392730713,34.8618469 10.2027307,44.6718469 22.2927307,44.6718469 C34.3927307,44.6718469 44.2027307,34.8618469 44.2027307,22.7618469 C44.2027307,10.6718469 34.3927307,0.861846924 22.2927307,0.861846924 Z" id="path-1"></path>
    <filter x="-24.0%" y="-17.1%" width="147.9%" height="147.9%" filterUnits="objectBoundingBox" id="filter-2">
      <feOffset dx="0" dy="3" in="SourceAlpha" result="shadowOffsetOuter1"></feOffset>
      <feGaussianBlur stdDeviation="3" in="shadowOffsetOuter1" result="shadowBlurOuter1"></feGaussianBlur>
      <feComposite in="shadowBlurOuter1" in2="SourceAlpha" operator="out" result="shadowBlurOuter1"></feComposite>
      <feColorMatrix values="0 0 0 0 0   0 0 0 0 0   0 0 0 0 0  0 0 0 0.16 0" type="matrix" in="shadowBlurOuter1"></feColorMatrix>
    </filter>
    <mask id="mask-3" maskContentUnits="userSpaceOnUse" maskUnits="objectBoundingBox" x="0" y="0" width="43.81" height="43.81" fill="white">
      <use xlink:href="#path-1"></use>
    </mask>
  </defs>
  <g id="页面-1" stroke="none" stroke-width="1" fill="none" fill-rule="evenodd">
    <g id="操控页---制冷---自动风速" transform="translate(-294.000000, -305.000000)">
      <g id="编组-2" transform="translate(294.000000, 305.000000)">
        <g id="路径" stroke-dasharray="0,0">
          <use fill="black" fill-opacity="1" filter="url(#filter-2)" xlink:href="#path-1"></use>
          <use stroke="#FFFFFF" mask="url(#mask-3)" stroke-width="1" fill="#14726C" fill-rule="evenodd" xlink:href="#path-1"></use>
        </g>
        <path d="M24.2138708,12.7510529 C26.5538708,13.2510529 28.7838708,14.4910529 30.3838708,16.3610529 C31.9838708,18.3510529 32.8538708,20.7110529 32.8538708,23.2010529 C32.8538708,29.0410529 28.1638708,33.7710529 22.3638708,33.7710529 L22.3638708,33.7710529 L21.4938708,33.7710529 C19.0338708,33.5210529 16.6838708,32.4010529 14.9538708,30.6610529 C12.9838708,28.6710529 11.8738708,26.0610529 11.8738708,23.2010529 C11.8738708,21.3310529 12.3638708,19.4710529 13.3538708,17.8510529 C14.0938708,16.4810529 15.2038708,15.3610529 16.4438708,14.4910529 L16.4438708,14.4910529 L15.8238708,13.3710529 C15.7038708,13.2510529 15.7038708,13.1210529 15.8238708,13.0010529 C15.8238708,12.8710529 15.9438708,12.8710529 16.0738708,12.8710529 L21.1238708,12.8710529 L18.6638708,17.2310529 C18.5338708,17.3510529 18.4138708,17.3510529 18.2938708,17.3510529 C18.1638708,17.3510529 18.0438708,17.3510529 18.0438708,17.2310529 L18.0438708,17.2310529 L17.4238708,16.1110529 C15.2038708,17.7310529 13.7238708,20.4610529 13.7238708,23.2010529 C13.7238708,25.5610529 14.7138708,27.6710529 16.3138708,29.2910529 C17.7938708,30.7810529 19.6438708,31.6610529 21.6238708,31.9010529 L21.6238708,31.9010529 L22.3638708,31.9010529 C27.1738708,31.9010529 31.0038708,28.0510529 31.0038708,23.2010529 C31.0038708,18.9710529 28.0338708,15.3610529 23.8438708,14.6210529 C23.3538708,14.6210529 22.9838708,14.1210529 23.1038708,13.6210529 C23.2238708,13.0010529 23.7238708,12.7510529 24.2138708,12.7510529 Z M22.3639404,19.2183685 C24.5839404,19.2183685 26.4339404,20.9583685 26.4339404,23.1983685 C26.4339404,25.4383685 24.5839404,27.2983685 22.3639404,27.2983685 C20.1439404,27.2983685 18.4139404,25.4383685 18.4139404,23.1983685 C18.4139404,20.9583685 20.1439404,19.2183685 22.3639404,19.2183685 Z M22.36474,21.0840454 C21.25474,21.0840454 20.26474,22.0740454 20.26474,23.1940454 C20.26474,24.4440454 21.25474,25.3140454 22.36474,25.3140454 C23.59474,25.3140454 24.46474,24.4440454 24.46474,23.1940454 C24.46474,22.0740454 23.59474,21.0840454 22.36474,21.0840454 Z" id="形状结合" fill="#FFFFFF"></path>
      </g>
    </g>
  </g>
</svg>
