<?xml version="1.0" encoding="UTF-8"?>
<svg xmlns="http://www.w3.org/2000/svg" xmlns:xlink="http://www.w3.org/1999/xlink" width="56px" height="57px" viewBox="0 0 56 57" version="1.1">
  <title>睡眠</title>
  <defs>
    <path d="M27.9949783,4 C15.8525451,4 6,13.8525451 6,25.9949783 C6,38.1474549 15.8525451,48 27.9949783,48 C40.1474549,48 50,38.1474549 50,25.9949783 C50,13.8525451 40.1474549,4 27.9949783,4 Z" id="path-1"></path>
    <filter x="-23.9%" y="-17.0%" width="147.7%" height="147.7%" filterUnits="objectBoundingBox" id="filter-2">
      <feOffset dx="0" dy="3" in="SourceAlpha" result="shadowOffsetOuter1"></feOffset>
      <feMorphology radius="1" operator="erode" in="SourceAlpha" result="shadowInner"></feMorphology>
      <feOffset dx="0" dy="3" in="shadowInner" result="shadowInner"></feOffset>
      <feComposite in="shadowOffsetOuter1" in2="shadowInner" operator="out" result="shadowOffsetOuter1"></feComposite>
      <feGaussianBlur stdDeviation="3" in="shadowOffsetOuter1" result="shadowBlurOuter1"></feGaussianBlur>
      <feColorMatrix values="0 0 0 0 0   0 0 0 0 0   0 0 0 0 0  0 0 0 0.16 0" type="matrix" in="shadowBlurOuter1"></feColorMatrix>
    </filter>
    <mask id="mask-3" maskContentUnits="userSpaceOnUse" maskUnits="objectBoundingBox" x="0" y="0" width="44" height="44" fill="white">
      <use xlink:href="#path-1"></use>
    </mask>
  </defs>
  <g id="页面-1" stroke="none" stroke-width="1" fill="none" fill-rule="evenodd">
    <g id="操控页---制热---低风" transform="translate(-202.000000, -585.000000)">
      <g id="睡眠" transform="translate(202.000000, 585.000000)">
        <path d="M26.0993684,16.4525071 C24.1193684,18.1925071 22.9493684,20.7525071 22.9493684,23.5425071 C22.9493684,29.0125071 27.6193684,33.4325071 33.3493684,33.4325071 C34.1693684,33.4325071 35.0993684,33.3125071 35.9193684,33.1925071 C34.0493684,34.8225071 31.4793684,35.8725071 28.6693684,35.8725071 C22.9493684,35.8725071 18.2693684,31.4525071 18.2693684,25.9925071 C18.2693684,21.3325071 21.6593684,17.5025071 26.0993684,16.4525071 Z M30.7785701,24.9437064 C30.7785701,24.8237064 30.8985701,24.8237064 31.0085701,24.9437064 L31.0085701,24.9437064 L31.3585701,25.2937064 L31.5985701,25.5237064 L31.8285701,25.5237064 L32.4185701,25.4037064 C32.6485701,25.4037064 32.6485701,25.5237064 32.5285701,25.6437064 L32.5285701,25.6437064 L32.2985701,26.1037064 C32.2985701,26.2237064 32.1785701,26.3337064 32.1785701,26.3337064 C32.1785701,26.3337064 32.1785701,26.5737064 32.2985701,26.6837064 L32.2985701,26.6837064 L32.5285701,27.1537064 C32.5285701,27.2637064 32.5285701,27.3837064 32.2985701,27.2637064 L32.2985701,27.2637064 L31.8285701,27.1537064 L31.4785701,27.1537064 C31.4785701,27.1537064 31.3585701,27.2637064 31.2485701,27.2637064 L31.2485701,27.2637064 L30.8985701,27.7337064 C30.7785701,27.7337064 30.6585701,27.7337064 30.5485701,27.6137064 L30.5485701,27.6137064 L30.5485701,26.8037064 C30.5485701,26.8037064 30.3085701,26.6837064 30.1985701,26.6837064 L30.1985701,26.6837064 L29.7285701,26.3337064 C29.6085701,26.3337064 29.6085701,26.2237064 29.7285701,26.1037064 L29.7285701,26.1037064 L30.3085701,25.8737064 L30.5485701,25.7537064 C30.5485701,25.7537064 30.6585701,25.6437064 30.6585701,25.5237064 L30.6585701,25.5237064 Z M35.451783,21.5716514 C35.571783,21.4516514 35.691783,21.4516514 35.801783,21.5716514 L35.801783,21.5716514 L36.151783,21.9216514 C36.151783,22.0316514 36.271783,22.1516514 36.271783,22.1516514 L36.271783,22.1516514 L36.621783,22.1516514 L37.211783,22.0316514 C37.321783,22.0316514 37.441783,22.1516514 37.321783,22.2716514 L37.321783,22.2716514 L37.091783,22.7316514 L36.861783,22.9616514 L36.971783,23.2016514 L37.211783,23.7816514 C37.321783,23.8916514 37.211783,24.0116514 37.091783,23.8916514 L37.091783,23.8916514 L36.511783,23.7816514 L36.271783,23.7816514 L36.041783,23.8916514 L35.571783,24.2416514 C35.451783,24.3616514 35.341783,24.3616514 35.341783,24.2416514 L35.341783,24.2416514 L35.341783,23.6616514 C35.341783,23.5416514 35.221783,23.4316514 35.221783,23.4316514 L35.221783,23.4316514 L34.991783,23.2016514 L34.521783,22.9616514 C34.401783,22.9616514 34.401783,22.8516514 34.521783,22.7316514 L34.521783,22.7316514 L34.991783,22.5016514 C35.101783,22.5016514 35.341783,22.3816514 35.341783,22.3816514 L35.341783,22.3816514 L35.341783,22.1516514 Z M30.6593855,16.3331268 C30.6593855,16.1031268 30.8993855,15.9831268 31.0093855,16.2231268 L31.0093855,16.2231268 L31.5993855,16.9131268 L31.9493855,17.2631268 C31.9493855,17.2631268 32.2993855,17.1531268 32.4193855,17.1531268 L32.4193855,17.1531268 L33.3493855,17.0331268 C33.5793855,17.0331268 33.6993855,17.1531268 33.5793855,17.3831268 L33.5793855,17.3831268 L33.1193855,18.1931268 C32.9993855,18.3131268 32.8793855,18.5431268 32.8793855,18.5431268 C32.8793855,18.5431268 32.9993855,18.8931268 33.1193855,19.0131268 L33.1193855,19.0131268 L33.4693855,19.7131268 C33.5793855,19.9431268 33.4693855,20.1731268 33.2293855,20.0531268 L33.2293855,20.0531268 L32.2993855,19.9431268 C32.1793855,19.8231268 31.8293855,19.8231268 31.8293855,19.8231268 C31.8293855,19.8231268 31.5993855,20.0531268 31.4793855,20.0531268 L31.4793855,20.0531268 L30.7793855,20.6431268 C30.5493855,20.8731268 30.4293855,20.7531268 30.4293855,20.5231268 L30.4293855,20.5231268 L30.3093855,19.7131268 L30.3093855,19.2431268 C30.3093855,19.2431268 29.9593855,19.0131268 29.8393855,19.0131268 L29.8393855,19.0131268 L29.0293855,18.5431268 C28.7893855,18.4331268 28.7893855,18.3131268 29.0293855,18.1931268 L29.0293855,18.1931268 L29.8393855,17.8431268 C29.9593855,17.7331268 30.3093855,17.6131268 30.3093855,17.6131268 C30.3093855,17.6131268 30.4293855,17.2631268 30.4293855,17.1531268 L30.4293855,17.1531268 Z" fill="#FFFFFF"></path>
        <g id="路径" stroke-dasharray="0,0">
          <use fill="black" fill-opacity="1" filter="url(#filter-2)" xlink:href="#path-1"></use>
          <use stroke="#FFFFFF" mask="url(#mask-3)" stroke-width="1" xlink:href="#path-1"></use>
        </g>
      </g>
    </g>
  </g>
</svg>
