<?xml version="1.0" encoding="UTF-8"?>
<svg xmlns="http://www.w3.org/2000/svg" xmlns:xlink="http://www.w3.org/1999/xlink" width="56px" height="57px" viewBox="0 0 56 57" version="1.1">
  <title>上下摆风</title>
  <defs>
    <path d="M28,4 C15.85,4 6,13.85 6,26 C6,38.15 15.85,48 28,48 C40.15,48 50,38.15 50,26 C50,13.85 40.15,4 28,4 Z" id="path-1"></path>
    <filter x="-23.9%" y="-17.0%" width="147.7%" height="147.7%" filterUnits="objectBoundingBox" id="filter-2">
      <feOffset dx="0" dy="3" in="SourceAlpha" result="shadowOffsetOuter1"></feOffset>
      <feGaussianBlur stdDeviation="3" in="shadowOffsetOuter1" result="shadowBlurOuter1"></feGaussianBlur>
      <feComposite in="shadowBlurOuter1" in2="SourceAlpha" operator="out" result="shadowBlurOuter1"></feComposite>
      <feColorMatrix values="0 0 0 0 0   0 0 0 0 0   0 0 0 0 0  0 0 0 0.16 0" type="matrix" in="shadowBlurOuter1"></feColorMatrix>
    </filter>
    <mask id="mask-3" maskContentUnits="userSpaceOnUse" maskUnits="objectBoundingBox" x="0" y="0" width="44" height="44" fill="white">
      <use xlink:href="#path-1"></use>
    </mask>
  </defs>
  <g id="页面-1" stroke="none" stroke-width="1" fill="none" fill-rule="evenodd">
    <g id="画板" transform="translate(-40.000000, -467.000000)">
      <g id="上下摆风备份-2" transform="translate(40.000000, 467.000000)">
        <g id="路径" stroke-dasharray="0,0">
          <use fill="black" fill-opacity="1" filter="url(#filter-2)" xlink:href="#path-1"></use>
          <use stroke="#FFFFFF" mask="url(#mask-3)" stroke-width="1" fill="#14726C" fill-rule="evenodd" xlink:href="#path-1"></use>
        </g>
        <path d="M30.3280115,16.9310666 L35.0380115,18.0710666 C35.1480115,18.1810666 35.2480115,18.2810666 35.2480115,18.3810666 C35.3680115,18.4910666 35.2480115,18.5910666 35.1480115,18.7010666 L35.1480115,18.7010666 L34.2680115,19.5310666 C37.1580115,22.3810666 37.7380115,26.6910666 35.6880115,30.1410666 C35.2780115,30.7710666 34.7980115,31.3610666 34.2680115,31.9010666 L34.2680115,31.9010666 L35.1480115,32.8310666 C35.2480115,32.9410666 35.3680115,33.0510666 35.2480115,33.1510666 C35.2480115,33.2610666 35.1480115,33.3510666 35.0380115,33.3510666 L35.0380115,33.3510666 L30.3280115,34.6010666 L31.6280115,30.1410666 C31.6280115,30.0310666 31.7480115,29.9310666 31.8480115,29.8310666 C31.9780115,29.8110666 32.0980115,29.8510666 32.1880115,29.9310666 L32.1880115,29.9310666 L33.0580115,30.7610666 C34.4780115,29.4510666 35.2680115,27.6510666 35.2380115,25.7810666 C35.2680115,23.8710666 34.4780115,22.0410666 33.0580115,20.7010666 L33.0580115,20.7010666 L32.1780115,21.5210666 C32.0980115,21.6010666 31.9680115,21.6410666 31.8480115,21.6310666 L31.8480115,21.6310666 L31.8580115,21.6010666 C31.7480115,21.5910666 31.6580115,21.5110666 31.6480115,21.4010666 L31.6480115,21.4010666 L30.3280115,16.9310666 Z M18.7805481,28.1010666 C20.5605481,28.0610666 22.3305481,28.4210666 23.9405481,29.1510666 C24.9305481,29.5510666 25.8505481,30.1010666 26.6605481,30.7910666 L26.6605481,30.7910666 L27.6405481,29.8110666 C27.6405481,29.7010666 27.8605481,29.7010666 27.9705481,29.7010666 C28.0805481,29.8110666 28.1905481,29.8110666 28.1905481,30.0210666 L28.1905481,30.0210666 L29.3905481,34.6010666 L24.6905481,33.3210666 C24.5705481,33.3110666 24.4805481,33.2210666 24.4705481,33.1110666 C24.4705481,33.0010666 24.4705481,32.7910666 24.5805481,32.7910666 L24.5805481,32.7910666 L25.4505481,31.9410666 C23.5605481,30.4610666 21.2005481,29.6710666 18.7805481,29.7010666 L18.7805481,29.7010666 Z M27.4205481,23.3276412 L31.6905481,25.7776412 L27.4205481,28.1276412 L27.1005481,28.1276412 C26.9805481,28.0176412 26.8805481,27.9176412 26.8805481,27.8076412 L26.8805481,27.8076412 L26.8805481,26.5276412 L18.7805481,26.5276412 L18.7805481,24.9276412 L26.8805481,24.9276412 L26.8805481,23.6476412 C26.8805481,23.5476412 26.9805481,23.4376412 27.1005481,23.3276412 L27.1005481,23.3276412 L27.4205481,23.3276412 Z M29.3905481,16.9598694 L28.1905481,21.5398694 C28.1805481,21.6598694 28.0905481,21.7498694 27.9705481,21.7598694 C27.9105481,21.7998694 27.8405481,21.8098694 27.7805481,21.7798694 C27.7105481,21.7598694 27.6605481,21.7098694 27.6405481,21.6498694 L27.6405481,21.6498694 L26.6605481,20.7998694 L26.6605481,20.7698694 C25.8405481,21.4498694 24.9205481,21.9898694 23.9205481,22.3698694 C22.3005481,23.0698694 20.5505481,23.4398694 18.7805481,23.4598694 L18.7805481,23.4598694 L18.7805481,21.7598694 C21.3005481,21.7598694 23.8105481,21.0098694 25.4505481,19.6298694 L25.4505481,19.6298694 L24.5805481,18.7698694 C24.4905481,18.6798694 24.4605481,18.5698694 24.4705481,18.4498694 C24.4805481,18.3398694 24.5705481,18.2398694 24.6905481,18.2398694 L24.6905481,18.2398694 L29.3905481,16.9598694 Z" id="上下摆风" fill="#FFFFFF"></path>
      </g>
    </g>
  </g>
</svg>
