<?xml version="1.0" encoding="UTF-8"?>
<svg xmlns="http://www.w3.org/2000/svg" xmlns:xlink="http://www.w3.org/1999/xlink" width="54px" height="71px" viewBox="0 0 54 71" version="1.1">
  <title>点击添加</title>
  <g id="页面-1" stroke="none" stroke-width="1" fill="none" fill-rule="evenodd">
    <g id="定时" transform="translate(-158.000000, -368.000000)" fill="#14726C">
      <g id="点击添加" transform="translate(158.000000, 368.000000)">
        <path d="M19.5991784,12.1709747 C23.6089823,12.1709747 26.7825694,15.2563265 26.6227855,19.2314191 L26.6091784,19.4709747 L26.6091784,26.7809747 L28.0691784,26.7809747 C30.6991784,26.7809747 33.0391784,27.9509747 34.2091784,29.9909747 C35.0891784,29.7009747 35.9591784,29.4109747 36.8391784,29.4109747 C39.7591784,29.4109747 42.0991784,30.8709747 43.2691784,33.2109747 C44.1391784,32.9109747 45.0191784,32.6209747 45.8991784,32.6209747 C49.9039701,32.6209747 53.0650465,35.698618 53.4672698,39.3942667 L53.4891784,39.6309747 L53.4891784,52.2009747 C53.4891784,60.3809747 48.5291784,67.0909747 41.5091784,69.1409747 C38.2991784,70.0209747 35.3791784,70.3109747 32.4591784,70.3109747 C29.2391784,70.3109747 26.3191784,69.7209747 24.2791784,69.4309747 C19.1360673,68.479271 13.9929562,64.7359031 8.84984508,58.200871 L8.49917842,57.7509747 L8.14761042,57.2911066 C8.08885842,57.2138765 8.03004642,57.1363834 7.97120242,57.0586717 L7.61797842,56.5901347 L7.08964242,55.8821645 C6.97271442,55.7245939 6.85621842,55.5670387 6.74037842,55.4098547 L6.39505042,54.9397722 C4.22327442,51.9741427 2.36917842,49.2709747 2.36917842,49.2709747 C1.19917842,47.5209747 0.609178415,45.1809747 0.899178415,43.1409747 C1.19917842,41.0909747 2.36917842,39.0509747 4.11917842,37.8809747 C6.38117842,36.1893081 9.45614508,36.1329192 12.0342988,37.1878962 L12.2991784,37.3009747 L12.2991784,19.4709747 C12.2991784,15.3809747 15.5091784,12.1709747 19.5991784,12.1709747 Z M19.7290989,18.0124339 C18.8590989,18.0124339 18.4239317,18.6968856 18.4292563,19.4739771 L18.4292563,45.1839771 C18.4292563,45.5449812 18.1222832,47.0374321 16.1974843,47.3986022 C14.9142851,47.6393823 13.8082091,47.1945072 12.8792563,46.0639771 L10.8392563,43.1439771 C10.6002803,42.7509447 9.9499497,42.2930228 9.37303528,42.2254729 C8.65080575,42.1409082 8.20925632,42.2639771 7.61925632,42.5539771 C6.45925632,43.1439771 6.15925632,44.6039771 7.03925632,45.7639771 C7.03925632,45.7639771 8.89335232,48.4671451 10.9378253,51.4327745 L11.2619763,51.9028571 L12.0766463,53.0831371 L12.400411,53.551674 C12.4541301,53.6293857 12.5077082,53.7068788 12.5611149,53.7841089 L12.8792563,54.2439771 C17.3592563,59.8906437 21.4492563,63.1039771 25.1492563,63.8839771 C30.4092563,64.7539771 35.6692563,64.7539771 39.7592563,63.5939771 C44.1392563,62.4239771 47.6492563,57.7439771 47.6492563,52.4839771 L47.6492563,39.6339771 C47.6492563,38.7539771 47.0592563,38.1739771 46.1892563,38.1739771 C45.5992563,38.1739771 45.2064523,38.3439568 44.9164523,38.6339568 C44.6264523,38.9339568 44.4392563,39.6339771 44.4392563,39.9239771 C44.4392563,41.6739771 43.2692563,42.8439771 41.5092563,42.8439771 C39.7592563,42.8439771 38.5892563,41.6739771 38.5892563,39.9239771 L38.5892563,36.4239771 C38.5892563,35.5439771 38.0092563,34.9539771 37.1292563,34.9539771 C36.2592563,34.9539771 35.6692563,35.5439771 35.6692563,36.4239771 L35.6692563,39.9239771 C35.6692563,41.6739771 34.4992563,42.8439771 32.7492563,42.8439771 C30.9992563,42.8439771 29.8292563,41.6739771 29.8292563,39.9239771 L29.8292563,33.7939771 C29.8292563,32.9139771 29.2392563,32.3339771 28.3692563,32.3339771 C27.4892563,32.3339771 26.9092563,32.9139771 26.9092563,33.7939771 L26.9092563,39.9239771 C26.9092563,41.6739771 25.7392563,42.8439771 23.9792563,42.8439771 C22.2292563,42.8439771 21.0592563,41.6739771 21.0592563,39.9239771 L21.0592563,19.4739771 C21.0592563,18.5939771 20.6090989,18.0124339 19.7290989,18.0124339 Z M19.6030353,0.484771729 C28.3630353,0.484771729 35.6730353,7.78477173 35.6730353,16.5547717 C35.6730353,18.3047717 34.5030353,19.4747717 32.7530353,19.4747717 C30.9930353,19.4747717 29.8230353,18.3047717 29.8230353,16.5547717 C29.8230353,11.0047717 25.1530353,6.32477173 19.6030353,6.32477173 C14.0530353,6.32477173 9.37303528,11.0047717 9.37303528,16.5547717 C9.37303528,18.3047717 8.20303528,19.4747717 6.45303528,19.4747717 C4.99303528,19.4747717 3.53303528,18.3047717 3.53303528,16.5547717 C3.53303528,7.78477173 10.8330353,0.484771729 19.6030353,0.484771729 Z"></path>
      </g>
    </g>
  </g>
</svg>
