<?xml version="1.0" encoding="UTF-8"?>
<svg xmlns="http://www.w3.org/2000/svg" xmlns:xlink="http://www.w3.org/1999/xlink" width="17px" height="18px" viewBox="0 0 17 18" version="1.1">
  <title>选中</title>
  <g id="页面-1" stroke="none" stroke-width="1" fill="none" fill-rule="evenodd">
    <g id="定时---1" transform="translate(-334.000000, -126.000000)">
      <g id="选中" transform="translate(334.000000, 126.000000)">
        <path d="M2,0 L15,0 C16.1045695,-2.02906125e-16 17,0.8954305 17,2 L17,16 C17,17.1045695 16.1045695,18 15,18 L2,18 C0.8954305,18 1.3527075e-16,17.1045695 0,16 L0,2 C-1.3527075e-16,0.8954305 0.8954305,2.02906125e-16 2,0 Z" id="矩形-371" fill="#14726C"></path>
        <path d="M3.76,9.19569801 L7.84878469,13.401396 L7.84878469,13.401396 L7.84878469,13.401396 M14.2740185,4.99 L14.2740185,4.99 L7.84878469,13.401396 L14.2740185,4.99" id="联合-5" stroke="#FAFBFD" stroke-width="2" stroke-linecap="round" stroke-linejoin="round" stroke-dasharray="0,0"></path>
      </g>
    </g>
  </g>
</svg>
