<?xml version="1.0" encoding="UTF-8"?>
<svg xmlns="http://www.w3.org/2000/svg" xmlns:xlink="http://www.w3.org/1999/xlink" width="56px" height="57px" viewBox="0 0 56 57" version="1.1">
  <title>ECO</title>
  <defs>
    <path d="M28,4 C15.8539535,4 6,13.85 6,26 C6,38.15 15.8539535,48 28,48 C40.1460465,48 50,38.15 50,26 C50,13.85 40.1460465,4 28,4 Z" id="path-1"></path>
    <filter x="-23.9%" y="-17.0%" width="147.7%" height="147.7%" filterUnits="objectBoundingBox" id="filter-2">
      <feOffset dx="0" dy="3" in="SourceAlpha" result="shadowOffsetOuter1"></feOffset>
      <feGaussianBlur stdDeviation="3" in="shadowOffsetOuter1" result="shadowBlurOuter1"></feGaussianBlur>
      <feComposite in="shadowBlurOuter1" in2="SourceAlpha" operator="out" result="shadowBlurOuter1"></feComposite>
      <feColorMatrix values="0 0 0 0 0   0 0 0 0 0   0 0 0 0 0  0 0 0 0.16 0" type="matrix" in="shadowBlurOuter1"></feColorMatrix>
    </filter>
    <mask id="mask-3" maskContentUnits="userSpaceOnUse" maskUnits="objectBoundingBox" x="0" y="0" width="44" height="44" fill="white">
      <use xlink:href="#path-1"></use>
    </mask>
  </defs>
  <g id="页面-1" stroke="none" stroke-width="1" fill="none" fill-rule="evenodd">
    <g id="画板" transform="translate(-126.000000, -467.000000)">
      <g id="ECO备份" transform="translate(126.000000, 467.000000)">
        <g id="路径" stroke-dasharray="0,0">
          <use fill="black" fill-opacity="1" filter="url(#filter-2)" xlink:href="#path-1"></use>
          <use stroke="#FFFFFF" mask="url(#mask-3)" stroke-width="1" fill="#14726C" fill-rule="evenodd" xlink:href="#path-1"></use>
        </g>
        <path d="M35.4842477,15.142824 L35.5003125,15.1978703 L35.5403125,15.3078703 C34.6421307,17.4278703 34.3561803,19.9710108 34.0025514,22.4857817 L33.9123408,23.1136221 C33.3116917,27.1873461 32.3827137,31.0868007 28.207903,32.874549 L27.8803125,33.0078703 L27.6603125,33.0778703 C26.3903125,33.4778703 25.0403125,33.3978703 23.8203125,32.8578703 C23.4003125,33.7178703 23.0603125,34.6278703 22.8003125,35.5578703 C22.6903125,35.8178703 22.4903125,36.0178703 22.2503125,36.1178703 C22.0303125,36.1978703 21.8803125,36.1178703 21.6303125,36.0778703 C21.4003125,35.9978703 21.2203125,35.8178703 21.1203125,35.5878703 C21.0303125,35.3578703 21.0203125,35.0978703 21.1203125,34.8678703 C21.3603125,33.8978703 21.7303125,32.9778703 22.2203125,32.1278703 C22.1903125,32.0078703 22.1903125,32.0078703 22.3003125,31.9778703 C21.3503125,31.2278703 20.6503125,30.1978703 20.3003125,29.0078703 C20.0247569,28.1367592 19.938831,27.2103395 20.0425347,26.2988443 L20.0903125,25.9578703 L20.1303125,25.6878703 C20.8503125,22.0778703 25.1103125,18.1678703 31.3003125,16.0978703 C32.6103125,15.6178703 33.9603125,15.2478703 35.3303125,15.0078703 C35.4136458,14.974537 35.4553125,15.0523148 35.4842477,15.142824 Z M33.0195652,17.4010104 L31.8095652,17.8110104 C29.2395652,18.6210104 26.8395652,19.9310104 24.7295652,21.6610104 C23.0995652,23.0810104 22.1195652,24.6610104 21.8095652,26.0110104 L21.8395652,26.1210104 L21.7995652,26.3910104 C21.6695652,27.0810104 21.7195652,27.8010104 21.9495652,28.4610104 C22.2895652,29.5110104 22.9895652,30.3910104 23.9195652,30.9310104 C24.9395652,31.4610104 26.0995652,31.6010104 27.2095652,31.3410104 L27.3195652,31.3010104 C28.1495652,30.9810104 28.9095652,30.4710104 29.5295652,29.8110104 C30.1395652,29.2210104 30.6295652,28.5110104 30.9495652,27.7110104 C31.7495652,25.9510104 31.9695652,23.8710104 32.3295652,21.5010104 C32.5395652,20.1910104 32.7095652,18.7310104 33.0195652,17.4010104 Z M30.1948285,20.4707524 C30.4248285,20.2207524 30.8048285,20.2007524 31.0548285,20.4407524 C31.2748285,20.6807524 31.2748285,21.0607524 31.0548285,21.3107524 C28.8948285,23.9107524 26.9448285,26.7007524 25.2248285,29.6507524 C25.1148285,29.6807524 25.0348285,29.8307524 24.8148285,29.9107524 C24.6748285,29.9107524 24.5348285,29.8707524 24.4148285,29.7907524 C24.2848285,29.7207524 24.1748285,29.6007524 24.1348285,29.4507524 C24.0848285,29.3007524 24.1048285,29.1307524 24.1748285,29.0007524 C25.9248285,25.9707524 27.9448285,23.1207524 30.1948285,20.4707524 Z" id="ECO" fill="#FFFFFF"></path>
      </g>
    </g>
  </g>
</svg>
