<?xml version="1.0" encoding="UTF-8"?>
<svg xmlns="http://www.w3.org/2000/svg" xmlns:xlink="http://www.w3.org/1999/xlink" width="63px" height="45px" viewBox="0 0 63 45" version="1.1">
  <title>中风</title>
  <g id="页面-1" stroke="none" stroke-width="1" fill="none" fill-rule="evenodd">
    <g id="画板备份" transform="translate(-542.000000, -234.000000)" fill="#FFFFFF">
      <g id="中风" transform="translate(542.142857, 234.000000)">
        <path d="M17.9586481,5 C28.009163,5 36.0795206,12.7970624 36.2442218,22.5006515 C36.2442218,32.2042407 28.3385654,39.9975867 18.2880505,39.9975867 C8.23753557,40.157393 0.00247680843,32.3603306 0.00247680843,22.6567415 C-0.162224367,12.9568688 7.90813322,5 17.9586481,5 Z M29.3267724,11.6821345 C23.0643845,5.6355089 13.0176129,5.79531523 6.75522499,11.6821345 C0.496580334,17.5689538 0.496580334,27.4323493 6.75522499,33.4752585 C13.0176129,39.5218841 23.0643845,39.5218841 29.3267724,33.4752585 C32.2913936,30.6098938 33.9384053,26.6333176 33.9384053,22.6567415 C33.9384053,18.5240754 32.2913936,14.5437828 29.3267724,11.6821345 Z M59.11298,7.27854098 L60.4305894,9.66448668 C57.301267,12.0504324 55.9836576,13.4812565 55.9836576,16.6662339 C56.1483588,18.5727606 56.9718647,20.3231974 58.2894741,21.5979316 C59.6070835,23.5044583 61.7481988,26.0502103 61.9128999,28.7557687 C62.4070035,31.7772233 60.7599917,34.9584842 57.9600717,37.0285337 L54.6660482,37.0285337 C58.2894741,33.2117638 58.4541753,32.096836 58.2894741,29.5510839 C58.1247729,27.4847509 55.9836576,25.2548951 54.8307494,23.6642646 C53.1837376,21.7577379 52.3564886,19.2082695 52.1917874,16.8223238 C52.1917874,12.8457476 54.3366459,9.66448668 59.11298,7.27854098 Z M48.7570192,7.27854098 L50.0746286,9.66448668 C46.9453063,12.0504324 45.6276969,13.4812565 45.6276969,16.6662339 C45.7923981,18.5727606 46.615904,20.3231974 47.9335134,21.5979316 C49.2511228,23.5044583 51.392238,26.0502103 51.5569392,28.7557687 C52.0510427,31.7772233 50.404031,34.9584842 47.604111,37.0285337 L44.3100875,37.0285337 C47.9335134,33.2117638 48.0982145,32.096836 47.9335134,29.5510839 C47.7688122,27.4847509 45.6276969,25.2548951 44.4747887,23.6642646 C42.8277769,21.7577379 42.0005279,19.2082695 41.8358267,16.8223238 C41.8358267,12.8457476 43.9806852,9.66448668 48.7570192,7.27854098 Z M18.6170785,13.9105037 C21.7464008,10.7255264 25.7029722,11.201229 27.349984,12.7955759 C29.1616969,14.5460126 29.1616969,15.5011342 28.9969957,15.6572241 C26.8558805,17.4076609 24.7147652,19.1580977 22.4052055,20.7487282 C22.7346079,20.9085345 22.7346079,21.3842371 22.8993091,21.5440434 C24.3853628,21.7001333 26.0323746,22.1795523 27.1852828,23.1346739 C30.149904,26.3196512 30.149904,29.6570021 28.1734899,31.4074389 C26.1970758,33.1578757 25.3698267,33.1578757 25.2088687,32.9980693 C23.3971558,30.9317363 21.7464008,28.8616868 20.0993891,26.6355475 C19.6052855,26.9551601 19.4405844,26.9551601 18.9464808,27.1149665 C18.7817797,28.5420742 18.2876761,30.1364211 17.2994691,31.251349 C14.3348479,34.1129972 10.2173186,34.1129972 8.5665636,32.2064705 C6.91955185,30.2962274 6.91955185,29.4971957 7.08425302,29.3411058 C9.06441033,27.5869526 11.2055256,25.8402322 13.5113421,24.4094081 C13.5113421,24.0897954 13.3466409,23.9299891 13.3466409,23.4542865 C11.8643303,23.2944802 10.2173186,22.8150612 9.06441033,21.8599396 C6.42544832,19.7936066 5.9313448,16.1329267 7.74305772,13.4310848 C9.71947183,11.8404543 10.5467209,11.8404543 10.7076789,12.0002606 C12.8525374,13.9105037 14.4995491,15.9731204 16.1465609,18.2029761 C16.311262,18.2029761 16.8053656,18.0431698 16.9700667,18.0431698 C17.1347679,16.6123457 17.6288714,15.0217152 18.6170785,13.9105037 Z M17.9582738,21.2281472 C17.1347679,21.2281472 16.4759632,21.8599396 16.4759632,22.6552549 C16.4759632,23.4542865 17.1347679,24.2496018 17.9582738,24.2496018 C18.7817797,24.0897954 19.4405844,23.4542865 19.6052855,22.6552549 C19.6052855,21.8599396 18.7817797,21.2281472 17.9582738,21.2281472 Z"></path>
      </g>
    </g>
  </g>
</svg>
