<?xml version="1.0" encoding="UTF-8"?>
<svg xmlns="http://www.w3.org/2000/svg" xmlns:xlink="http://www.w3.org/1999/xlink" width="52px" height="45px" viewBox="0 0 52 45" version="1.1">
  <title>低风</title>
  <g id="页面-1" stroke="none" stroke-width="1" fill="none" fill-rule="evenodd">
    <g id="画板备份" transform="translate(-472.000000, -234.000000)" fill="#FFFFFF">
      <g id="低风" transform="translate(472.142857, 234.000000)">
        <path d="M17.7346905,5 C27.6598681,5 35.6295823,12.7962591 35.7922296,22.4988485 C35.7922296,32.2014378 27.9851625,39.9976969 18.059985,39.9976969 C8.13480742,40.1537707 0.00244592081,32.3575116 0.00244592081,22.6586383 C-0.160201309,12.9523329 7.80951296,5 17.7346905,5 Z M28.9610459,11.6814461 C22.7767547,5.63544342 12.8552736,5.79523329 6.67098235,11.6814461 C0.490387611,17.5676588 0.490387611,27.4300381 6.67098235,33.4723247 C12.8552736,39.5183273 22.7767547,39.5183273 28.9610459,33.4723247 C31.8886961,30.6072552 33.5151684,26.6310887 33.5151684,22.6586383 C33.5151684,18.522682 31.8886961,14.5427995 28.9610459,11.6814461 Z M48.1489832,7.27793461 L49.4501611,9.66363449 C46.3598637,12.0493344 45.0586859,13.4837271 45.0586859,16.6646603 C45.2213331,18.5709906 46.0345692,20.321247 47.3357471,21.5958499 C48.6369249,23.5021802 50.7513389,26.0476699 50.9139861,28.7529495 C51.4019278,31.7740928 49.7754555,34.955026 47.0104526,37.0248622 L43.757508,37.0248622 C47.3357471,33.2084856 47.4983943,32.0936726 47.3357471,29.5481828 C47.1730998,27.4820627 45.0586859,25.2524366 43.9201552,23.66197 C42.2936829,21.7556398 41.4767503,19.21015 41.314103,16.8207341 C41.314103,12.8445677 43.4322136,9.66363449 48.1489832,7.27793461 Z M18.3849098,13.905498 C21.4752072,10.7245649 25.3824372,11.2039345 27.0089095,12.7944011 C28.798029,14.5446575 28.798029,15.4996807 28.6353818,15.6557545 C26.5209678,17.4060109 24.4065538,19.1562674 22.1257961,20.746734 C22.4510905,20.9065238 22.4510905,21.3821774 22.6137378,21.5419673 C24.0812594,21.7017571 25.7077317,22.1774107 26.8462623,23.1324339 C29.7739124,26.3170831 29.7739124,29.6540901 27.8221457,31.4043465 C25.8703789,33.1546029 25.0534462,33.1546029 24.8944955,32.9948131 C23.105376,30.9286929 21.4752072,28.8588568 19.8487349,26.6329468 C19.3607932,26.9525265 19.1981459,26.9525265 18.7102042,27.1123164 C18.547557,28.539277 18.0596153,30.1334597 17.0837319,31.2482727 C14.1560818,34.1096261 10.0899011,34.1096261 8.45973223,32.2032958 C6.83325993,30.2932495 6.83325993,29.4943002 6.99590716,29.3382264 C8.95137045,27.5842539 11.0657844,25.8377135 13.3428457,24.4070367 C13.3428457,24.087457 13.1801984,23.9276671 13.1801984,23.4520136 C11.7163734,23.2922237 10.0899011,22.8128541 8.95137045,21.861547 C6.34531824,19.7917108 5.85737655,16.1351241 7.64649608,13.4298445 C9.59826284,11.8393779 10.4151955,11.8393779 10.5741462,11.9991678 C12.6922567,13.905498 14.318729,15.9753342 15.9452013,18.2012442 C16.1078486,18.2012442 16.5957903,18.0451704 16.7584375,18.0451704 C16.9210847,16.6107777 17.4090264,15.0203111 18.3849098,13.905498 Z M17.7343209,21.2261036 C16.9210847,21.2261036 16.2704958,21.861547 16.2704958,22.6567803 C16.2704958,23.4520136 16.9210847,24.2472469 17.7343209,24.2472469 C18.547557,24.087457 19.1981459,23.4520136 19.3607932,22.6567803 C19.3607932,21.861547 18.547557,21.2261036 17.7343209,21.2261036 Z"></path>
      </g>
    </g>
  </g>
</svg>
