<?xml version="1.0" encoding="UTF-8"?>
<svg xmlns="http://www.w3.org/2000/svg" xmlns:xlink="http://www.w3.org/1999/xlink" width="73px" height="45px" viewBox="0 0 73 45" version="1.1">
  <title>高风</title>
  <g id="页面-1" stroke="none" stroke-width="1" fill="none" fill-rule="evenodd">
    <g id="画板备份" transform="translate(-624.000000, -234.000000)" fill="#FFFFFF">
      <g id="编组-2" transform="translate(624.142857, 234.000000)">
        <path d="M17.8707614,5 C27.8720907,5 35.9029533,12.7970624 36.0668485,22.4969351 C36.0668485,32.2005242 28.199881,39.9975867 18.1985517,39.9975867 C8.19722241,40.157393 0.00246468734,32.3603306 0.00246468734,22.6567415 C-0.161430467,12.9531523 7.86943211,5 17.8707614,5 Z M29.183252,11.6821345 C22.9515112,5.6355089 12.9539068,5.79531523 6.72216602,11.6821345 C0.494150151,17.5689538 0.494150151,27.4286328 6.72216602,33.4752585 C12.9539068,39.5218841 22.9515112,39.5218841 29.183252,33.4752585 C32.1333648,30.6098938 33.7723163,26.6333176 33.7723163,22.6567415 C33.7723163,18.5240754 32.1333648,14.5437828 29.183252,11.6821345 Z M69.1271086,7.27854098 L70.4382698,9.66448668 C67.3242619,12.0504324 66.0131006,13.4812565 66.0131006,16.6662339 C66.1769958,18.5727606 66.9964716,20.3231974 68.3076328,21.5979316 C69.618794,23.5044583 71.749431,26.0502103 71.9133262,28.7520523 C72.4050117,31.7772233 70.7660601,34.9584842 67.9798425,37.0285337 L64.7019394,37.0285337 C68.3076328,33.2117638 68.4715279,32.096836 68.3076328,29.5510839 C68.1437376,27.4847509 66.0131006,25.2548951 64.8658345,23.6642646 C63.226883,21.7577379 62.4036823,19.2082695 62.2397872,16.8223238 C62.2397872,12.8457476 64.3741491,9.66448668 69.1271086,7.27854098 Z M58.8236907,7.27854098 L60.1348519,9.66448668 C57.020844,12.0504324 55.7096827,13.4812565 55.7096827,16.6662339 C55.8735779,18.5727606 56.6930537,20.3231974 58.0042149,21.5979316 C59.3153761,23.5044583 61.4460131,26.0502103 61.6099083,28.7520523 C62.1015938,31.7772233 60.4626422,34.9584842 57.6764246,37.0285337 L54.3985215,37.0285337 C58.0042149,33.2117638 58.1681101,32.096836 58.0042149,29.5510839 C57.8403197,27.4847509 55.7096827,25.2548951 54.5624167,23.6642646 C52.9234651,21.7577379 52.1002644,19.2082695 51.9363693,16.8223238 C51.9363693,12.8457476 54.0707312,9.66448668 58.8236907,7.27854098 Z M48.5184103,7.27854098 L49.8295716,9.66448668 C46.7155636,12.0504324 45.4044024,13.4812565 45.4044024,16.6662339 C45.5682976,18.5727606 46.3877733,20.3231974 47.6989346,21.5979316 C49.0100958,23.5044583 51.1407328,26.0502103 51.304628,28.7520523 C51.7963134,31.7772233 50.1573619,34.9584842 47.3711443,37.0285337 L44.0932412,37.0285337 C47.6989346,33.2117638 47.8628297,32.096836 47.6989346,29.5510839 C47.5350394,27.4847509 45.4044024,25.2548951 44.2571363,23.6642646 C42.6181848,21.7577379 41.7949841,19.2082695 41.631089,16.8223238 C41.631089,12.8457476 43.7654509,9.66448668 48.5184103,7.27854098 Z M18.5259696,13.9067873 C21.6399775,10.7255264 25.5771861,11.201229 27.2161376,12.7955759 C29.0189843,14.5460126 29.0189843,15.5011342 28.8550892,15.6572241 C26.7244522,17.4076609 24.5938152,19.1580977 22.2955581,20.7487282 C22.6233484,20.9085345 22.6233484,21.3842371 22.7872436,21.540327 C24.2660249,21.7001333 25.9049764,22.1795523 27.0522425,23.1346739 C30.0023553,26.3196512 30.0023553,29.6570021 28.0356134,31.4074389 C26.0688716,33.1541592 25.2456709,33.1541592 25.0855006,32.9980693 C23.2826539,30.9317363 21.6399775,28.8616868 20.0010259,26.6355475 C19.5093405,26.9551601 19.3454453,26.9551601 18.8537599,27.1149665 C18.6898647,28.5420742 18.1981792,30.1364211 17.2148083,31.2476325 C14.2646955,34.1092808 10.1673167,34.1092808 8.52464023,32.2027541 C6.88568869,30.292511 6.88568869,29.4971957 7.04958384,29.3373894 C9.02005059,27.5869526 11.1506876,25.8402322 13.4452198,24.4056917 C13.4452198,24.0897954 13.2813246,23.9299891 13.2813246,23.4505701 C11.8062682,23.2944802 10.1673167,22.8150612 9.02005059,21.8599396 C6.39400323,19.7936066 5.90231776,16.1329267 7.70516446,13.4310848 C9.67190632,11.8404543 10.495107,11.8404543 10.6552772,11.9965442 C12.7896391,13.9067873 14.4285907,15.9731204 16.0675422,18.2029761 C16.2314374,18.2029761 16.7231229,18.0431698 16.887018,18.0431698 C17.0509132,16.6123457 17.5425986,15.0217152 18.5259696,13.9067873 Z M17.8703889,21.2281472 C17.0509132,21.2281472 16.3953325,21.8599396 16.3953325,22.6552549 C16.3953325,23.4505701 17.0509132,24.2496018 17.8703889,24.2496018 C18.6898647,24.0897954 19.3454453,23.4505701 19.5093405,22.6552549 C19.5093405,21.8599396 18.6898647,21.2281472 17.8703889,21.2281472 Z" id="高风"></path>
      </g>
    </g>
  </g>
</svg>
