<?xml version="1.0" encoding="UTF-8"?>
<svg xmlns="http://www.w3.org/2000/svg" xmlns:xlink="http://www.w3.org/1999/xlink" width="46px" height="45px" viewBox="0 0 46 45" version="1.1">
  <title>自动</title>
  <g id="页面-1" stroke="none" stroke-width="1" fill="none" fill-rule="evenodd">
    <g id="画板备份" transform="translate(-778.000000, -234.000000)" fill="#FFFFFF">
      <g id="自动" transform="translate(778.142857, 234.000000)">
        <path d="M26.6820373,7.09185255 C36.2011373,7.09185255 43.8436148,14.4210444 44,23.5465081 C44,32.6686206 36.5139078,39.9978124 26.9948078,39.9978124 C17.4791074,40.1452676 9.68024478,32.8194271 9.68024478,23.6939633 C9.52385956,14.5718508 17.1697367,7.09185255 26.6820373,7.09185255 Z M37.4488194,13.3754532 C31.5197799,7.6883757 22.0040796,7.83918212 16.0750402,13.3754532 C10.1494004,18.908373 10.1494004,28.181292 16.0750402,33.8650182 C22.0040796,39.5487445 31.5197799,39.5487445 37.4488194,33.8650182 C40.2569539,31.1706103 41.8174064,27.4339624 41.8174064,23.6939633 C41.8174064,19.806509 40.2569539,16.0665099 37.4488194,13.3754532 Z M27.309278,15.4703219 C30.2737978,12.4776523 34.0168439,12.9267203 35.5772963,14.4213795 C37.294134,16.066845 37.294134,16.964981 37.1377488,17.1124362 C35.1081407,18.7579017 33.0785326,20.4033673 30.8959389,21.9013777 C31.2087094,22.0488329 31.2087094,22.4979008 31.3650946,22.645356 C32.7691618,22.7961624 34.3296143,23.2452304 35.4209111,24.1433664 C38.2290456,27.1326847 38.2290456,30.2761606 36.3558227,31.9216262 C34.4825998,33.5670918 33.7040734,33.5670918 33.5476882,33.4162853 C31.8342502,31.4725582 30.2737978,29.5288311 28.7133453,27.4342975 C28.2441896,27.7325591 28.0878044,27.7325591 27.6186488,27.8833655 C27.4622636,29.2272182 26.9965076,30.7218774 26.061596,31.7708198 C23.2534615,34.4652277 19.3540302,34.4652277 17.7935777,32.6656045 C16.2331252,30.8726838 16.2331252,30.1253542 16.3895104,29.9778991 C18.2593337,28.3290823 20.2889418,26.6836167 22.4715354,25.339764 C22.4715354,25.0415024 22.3151502,24.890696 22.3151502,24.441628 C20.911083,24.2908216 19.3540302,23.8451048 18.2593337,22.9469688 C15.7639696,21.0032417 15.2948139,17.5648554 17.0116516,15.0212539 C18.8848745,13.5265947 19.6668006,13.5265947 19.8197861,13.6706987 C21.8493942,15.4703219 23.4098467,17.414049 24.9702992,19.5085826 C25.1266844,19.5085826 25.5924404,19.3577761 25.7488256,19.3577761 C25.9052108,18.0105722 26.3743664,16.515913 27.309278,15.4703219 Z M26.6837372,22.3470944 C25.9052108,22.3470944 25.2796699,22.9469688 25.2796699,23.6942984 C25.2796699,24.441628 25.9052108,25.1889576 26.6837372,25.1889576 C27.4622636,25.0415024 28.0878044,24.441628 28.2441896,23.6942984 C28.2441896,22.9469688 27.4622636,22.3470944 26.6837372,22.3470944 Z M4.23816414,5.000288 C4.40279624,5.00230399 4.6422611,5.0184319 4.6422611,5.14745516 C4.79524663,5.14745516 4.95163185,5.29826158 4.95163185,5.44906799 L4.95163185,5.44906799 L8.38530721,13.8238509 C8.38530721,13.9746574 8.54169242,14.2695677 8.38530721,14.2695677 C8.38530721,14.5711805 8.22892199,14.5711805 7.91615156,14.5711805 C7.75976635,14.7186357 7.60338113,14.5711805 7.60338113,14.4203741 C7.44699592,14.2695677 7.29061071,14.1221125 7.29061071,13.9746574 L7.29061071,13.9746574 L6.3556991,11.8801238 L2.14349734,11.8801238 L1.52135616,13.5255894 C1.52135616,13.5255894 1.36497095,13.6730445 1.36497095,13.8238509 C1.36497095,13.9746574 1.20858573,13.9746574 1.20858573,14.1221125 C1.05220052,14.2695677 1.05220052,14.4203741 0.895815305,14.4203741 C0.73943009,14.5711805 0.73943009,14.5711805 0.583044876,14.5711805 C0.426659661,14.5711805 0.270274447,14.5711805 0.117288911,14.4203741 C-0.0390963036,14.4203741 -0.0390963036,14.1221125 0.117288911,13.8238509 L0.117288911,13.8238509 L3.39117938,5.44906799 C3.39117938,5.29826158 3.54756459,5.14745516 3.70394981,5.14745516 C3.86033502,5 4.01672024,5 4.17310545,5 Z M4.32949067,6.49465914 L2.45626777,11.129443 L6.19931388,11.129443 L4.32949067,6.49465914 Z"></path>
      </g>
    </g>
  </g>
</svg>
