<?xml version="1.0" encoding="UTF-8"?>
<svg xmlns="http://www.w3.org/2000/svg" xmlns:xlink="http://www.w3.org/1999/xlink" width="46px" height="45px" viewBox="0 0 46 45" version="1.1">
  <title>强劲</title>
  <g id="页面-1" stroke="none" stroke-width="1" fill="none" fill-rule="evenodd">
    <g id="画板备份" transform="translate(-714.000000, -234.000000)" fill="#FFFFFF">
      <g id="强劲-" transform="translate(714.142857, 234.000000)">
        <path d="M25.5876191,10.8000903 C29.089602,10.5931055 32.1762857,11.8350143 34.6456327,14.1156104 C37.9418367,17.4273672 39.7938469,21.984796 39.7938469,26.9524311 C39.7938469,31.7168448 37.9418367,36.2742737 34.6456327,39.5860304 C34.2340749,40 33.822517,40 33.4109592,40 C32.9994014,40 32.5878435,40 32.3820646,39.5860304 C31.7647279,38.965076 31.7647279,37.930152 32.3820646,37.3091977 C35.2629694,34.4076471 36.7071632,30.474936 36.7071632,26.7454463 C36.5013843,23.01972 35.0571905,19.2902303 32.3820646,16.3886798 C29.2953809,13.2839079 25.1760612,11.8350143 22.5009354,11.8350143 L22.5009354,11.8350143 L21.2662619,11.8350143 C22.7067143,11.2140599 24.1471667,11.0070751 25.5876191,10.8000903 Z M33.0008979,21.3634653 C33.6182347,22.8085955 34.0297925,24.2612524 34.0297925,25.710146 C34.2355714,29.2326509 33.2066769,32.3374229 30.7373299,34.6142556 C27.4411259,38.1367605 22.9102483,39.9996237 18.1773333,39.9996237 C13.234898,39.9996237 8.70402044,38.1367605 5.41155783,34.6142556 C5,34.4110342 5,33.9933012 5,33.583095 L5.00041156,33.4578842 C5.00411558,33.0825681 5.04115578,32.7099955 5.41155783,32.3374229 C6.02889457,31.7164685 7.06153057,31.7164685 7.67886731,32.3374229 C10.5597721,35.23521 14.4695714,36.6878669 18.1773333,36.6878669 C21.8813538,36.6878669 25.5891156,35.23521 28.4700204,32.3374229 C31.5567041,29.4396357 33.0008979,25.2999398 33.0008979,22.6053741 L33.0008979,22.6053741 Z M11.5067292,5.00041773 C11.8771313,5.00417733 12.2475333,5.0417733 12.6179354,5.41773295 C13.2352721,6.03868734 13.2352721,7.07361132 12.6179354,7.69456571 C9.53125167,10.5961162 8.08705784,14.525064 8.29283676,18.258317 C8.29283676,21.9840434 9.73703058,25.7097697 12.6179354,28.6113202 C15.4988402,31.7160921 19.6181599,33.1687491 22.2932857,33.1687491 L22.2932857,33.1687491 L23.5279592,33.1687491 C22.2932857,33.7897034 20.6470544,34.203673 19.206602,34.203673 C15.7046191,34.4106578 12.6179354,33.1687491 10.1485884,30.8881529 C6.85238436,27.5726328 5.00037414,23.0189673 5.00037414,18.258317 C5.00037414,13.2831552 6.85238436,8.72572633 10.1485884,5.41773295 C10.5601462,5 10.9717041,5 11.3832619,5 Z M26.8226667,5.00037634 C31.5593231,5.00037634 36.0902006,6.8632395 39.3826633,10.3857444 C39.7942211,10.5927292 40,11.0066988 40,11.4206684 C40,11.8384013 39.7942211,12.2486076 39.3826633,12.6625771 C38.7653265,13.2835315 37.7326905,13.2835315 37.1153538,12.6625771 C34.234449,9.76479 30.5304286,8.31589643 26.6168878,8.31589643 C22.9128673,8.31589643 19.2051055,9.76479 16.3242007,12.6625771 C13.237517,15.5641277 11.7933231,19.7038236 11.7933231,22.3983893 L11.7933231,22.3983893 L11.7933231,23.6402981 C11.1759864,22.3983893 10.7644286,20.7425109 10.7644286,19.289854 C10.5586497,15.7673491 11.7933231,12.6625771 14.0568912,10.3857444 C17.3530952,6.8632395 21.8839728,5.00037634 26.8226667,5.00037634 Z" id="强劲"></path>
      </g>
    </g>
  </g>
</svg>
