<?xml version="1.0" encoding="UTF-8"?>
<svg xmlns="http://www.w3.org/2000/svg" xmlns:xlink="http://www.w3.org/1999/xlink" width="46px" height="45px" viewBox="0 0 46 45" version="1.1">
  <title>静音</title>
  <g id="页面-1" stroke="none" stroke-width="1" fill="none" fill-rule="evenodd">
    <g id="画板备份" transform="translate(-408.000000, -234.000000)" fill="#FFFFFF">
      <g id="静音" transform="translate(408.142857, 234.000000)">
        <path d="M13.3077558,29.0769293 L13.3077558,29.0769293 L11.7167618,29.0769293 C10.4397334,29.0769293 9.3920056,28.0055225 9.38142249,26.6924178 L9.32145154,17.2193056 C9.31086843,15.906201 10.3339023,14.8384016 11.6250415,14.8384016 L15.2232985,14.8384016 L29.3023607,7.60189619 C30.4488642,7.0102776 31.3801777,7.59828876 31.3801777,8.91500085 L31.3801777,9.5968052 L31.3872331,9.5968052 C31.4507318,10.1920312 31.9410825,10.6537823 32.540792,10.6537823 C33.1369738,10.6537823 33.6308522,10.1920312 33.6908231,9.5968052 L33.6978785,9.5968052 L33.6978785,8.91500085 C33.6978785,5.8342553 30.949798,4.09908128 28.2581607,5.48072712 L14.6729768,12.4647124 L11.6250415,12.4647124 C9.04629072,12.4647124 6.98258452,14.6039186 7.00011081,17.2373428 L7.06019399,26.7068476 C7.08136021,29.3222346 9.15917721,31.4470111 11.7167618,31.4470111 L13.3077558,31.4470111 L13.3606714,31.4470111 C14.0027133,31.4470111 14.5212856,30.9167188 14.5212856,30.2637739 C14.5212856,29.6036142 14.0027133,29.0769293 13.3606714,29.0769293 C13.3430328,29.0769293 13.3253943,29.0769293 13.3077558,29.0769293 L13.3077558,29.0769293 Z M22.1481793,35.2889245 C22.448034,35.444044 23.3828753,35.9238322 24.0002233,36.2412861 C27.1963221,37.8826669 27.1963221,37.8826669 28.2616884,38.4309963 C30.949798,39.8162496 33.6978785,38.0918979 33.6978785,35.0147598 L33.6978785,23.315863 L33.6908231,23.315863 C33.6308522,22.720637 33.1369738,22.2588859 32.540792,22.2588859 C31.9410825,22.2588859 31.4507318,22.720637 31.3872331,23.315863 L31.3801777,23.315863 L31.3801777,23.7379323 L31.3801777,35.0147598 C31.3801777,35.0147598 30.4523919,36.9014458 29.3058884,36.3134347 L23.1112421,33.1316811 L23.1112421,33.1316811 C23.1077144,33.1316811 23.1041867,33.1280737 23.100659,33.1244662 C22.5150604,32.8575164 21.830686,33.1280737 21.5661083,33.7269071 C21.3226968,34.2896662 21.5378867,34.9390037 22.0529313,35.2384204 L22.0529313,35.2384204 C22.0529313,35.2384204 22.056459,35.2420279 22.0635144,35.2456353 C22.091736,35.260065 22.1199576,35.2744947 22.1481793,35.2889245 L22.1481793,35.2889245 Z M40.6756748,9.64370179 C41.1201654,9.17112841 41.1060546,8.42078289 40.6439255,7.96624666 C40.1817964,7.51171043 39.4480342,7.52614015 39.0035437,7.99871353 L10.2245435,37.9872824 C9.78005292,38.4598558 9.79416373,39.2102013 10.2562928,39.668345 C10.7184219,40.1228812 11.4521841,40.1084515 11.8966747,39.6358781 L40.6756748,9.64370179 Z"></path>
      </g>
    </g>
  </g>
</svg>
